<svg  xmlns="http://www.w3.org/2000/svg" xmlns:xlink="http://www.w3.org/1999/xlink" width="754" height="200" viewBox="0 0 778 224"><path transform="translate(0 100)" d="M45.5,-74.2Q45.5,-74.1 45.75,-73.6Q46,-73.1 46.3,-72.6L47.3,-71.4L48.4,-70.2Q49.2,-69.4 50.2,-68.5L50.9,-67.9L49.8,-64.5Q49.6,-63.9 49.45,-63.55Q49.3,-63.2 49.25,-60.9Q49.2,-58.6 49.15,-55.5Q49.1,-52.4 49,-50.1L48.9,-47.3Q48.7,-46.9 48.6,-46.75Q48.5,-46.6 48.1,-46.3Q47.7,-46 46.6,-45.5Q45,-44.6 43.8,-43.9L41.7,-42.8Q41.1,-42.5 40.5,-42.3Q39.9,-42.1 39.65,-42.1Q39.4,-42.1 38.7,-42.3L35.9,-43.3L35,-43.5Q34,-43.8 34.3,-43.45Q34.6,-43.1 33.6,-43.1L32.9,-42.3L32,-41.2L30.7,-39.7Q30.7,-39.6 30.55,-39.65Q30.4,-39.7 30.3,-39.8L30,-40L29.7,-40.9Q29.5,-41.1 29.1,-41.8L28.2,-43.1L27.1,-44.3L25.8,-45.6L22.8,-48.2L21.5,-49.2L20.1,-49.9Q19.9,-49.8 19.2,-49.9L18.7,-50.1Q18.4,-50.1 18.3,-50.2Q18.2,-50.3 17.8,-50.4L17.1,-50.4Q16.6,-50.3 16.25,-50.4Q15.9,-50.5 15.55,-50.8Q15.2,-51.1 14.95,-51.2Q14.7,-51.3 14.7,-51.3L14.8,-50.9Q14.9,-50.5 15.2,-50.3L16,-49.3L17.1,-48L20.1,-45.2L20.1,-44.6L19.6,-42.8Q19.4,-41.5 19.2,-40.8L18.8,-39.2L18.8,-38.7L18.7,-38.2Q18.6,-38.1 18.6,-36.9L18.4,-34.2L18.6,-29.8L19.2,-27.7L19.9,-26.2Q20.4,-25.1 20.85,-24.25Q21.3,-23.4 21.85,-22.5Q22.4,-21.6 22.8,-21.2Q23.5,-20.4 23.6,-20.1L25.6,-17.9Q26.3,-17.1 27.2,-16.1L28.8,-14.7L30.1,-13.5L31.2,-12.6Q32.1,-12.1 32.55,-12.1Q33,-12.1 33.25,-12.35Q33.5,-12.6 33.8,-13.2L36.8,-18.3Q37,-18.5 37,-18.8Q37,-19.1 36.95,-19.6Q36.9,-20.1 36.7,-21.2L34.2,-31.6Q33.9,-33.4 33.7,-34.65Q33.5,-35.9 33.5,-37.1L33.5,-38.6Q33.5,-39.1 33.6,-39.4L34.1,-40.2Q34.4,-40.5 34.7,-40.9L35.3,-41.5Q35.8,-41.7 36.05,-41.75Q36.3,-41.8 36.5,-41.7L39,-39.7Q39.8,-38.8 40.75,-38.15Q41.7,-37.5 42.2,-37.25Q42.7,-37 43.3,-36.9L44.3,-36.5Q44.9,-36.5 45.45,-36.65Q46,-36.8 47,-37.3L48.7,-38L48.7,-30.7L45.4,-28.8L46.3,-29.2L46.6,-29Q46.8,-29 46.6,-28.9Q46.4,-28.8 46.4,-28.85Q46.4,-28.9 46,-28.6L43.8,-26.8L42.7,-25.9L40.8,-24.8Q40,-24.3 40.4,-24.45Q40.8,-24.6 40.6,-23.95Q40.4,-23.3 41,-23Q41.4,-22.5 42.05,-21.75Q42.7,-21 43.3,-20.4Q43.9,-19.8 44.5,-19.3L45.5,-18.5Q46,-18.4 46.3,-18.4Q46.6,-18.4 47,-18.5L48.4,-18.9Q48.5,-19 48.6,-19L48.7,-18.7Q48.7,-18.4 48.7,-17.85Q48.7,-17.3 48.6,-16.2L48.5,-10.8Q48.5,-6.5 48.4,-2Q48.4,3.3 48.35,6.85Q48.3,10.4 48.1,11.4L47.8,13.5Q47.5,14.7 47.25,15.55Q47,16.4 46.9,17.2L46.8,18.4L46.8,19.4L47,18.5Q47,18.2 47.2,17.8Q47.4,17.4 47.55,17.3Q47.7,17.2 48.1,17.1L49.1,16.8Q49.8,16.7 50.35,16.55Q50.9,16.4 51.65,15.75Q52.4,15.1 52.75,14.65Q53.1,14.2 53.6,13.2Q53.9,12.6 54.3,11.65Q54.7,10.7 54.9,10L55.4,8.1Q55.6,7.1 55.7,6.2Q56,5 56.05,3.5Q56.1,2 56.1,-0.7Q56.1,-4.7 56.2,-13.7Q56.2,-17.1 56.35,-19.55Q56.5,-22 56.55,-22.15Q56.6,-22.3 57,-22.4L57.7,-22.6Q58.5,-22.9 60.4,-23.7Q62.3,-24.5 63.2,-24.9Q64.1,-25.3 64.1,-25.8Q64.1,-25.9 64,-26.4L63.1,-28Q62.9,-28.3 63,-28.4L63.1,-28.6L65.6,-28.9Q67.1,-29.4 69.1,-29.9L72.6,-30.6Q74.5,-31 74.8,-31.1Q75.1,-31.2 75.5,-31.7L77.6,-33.5L78.3,-34Q78.6,-34.2 80.7,-35.9L83.5,-38.3Q83.9,-38.7 84.6,-39.2L85.8,-40.2L87.1,-41Q88.5,-41.8 88.2,-41.5Q89.2,-41.8 89.3,-42.3L89.2,-42.9L88.9,-43.8Q88.7,-44.1 87.85,-45.1Q87,-46.1 86.1,-47L81.7,-50.9L80.3,-52.1L79,-52.8Q78.7,-53.1 78.5,-53.15Q78.3,-53.2 78,-53.15Q77.7,-53.1 77,-52.8L74.6,-52.2L70.4,-51.6Q70.1,-51.6 70.05,-51.65Q70,-51.7 70.1,-52L70.1,-52.2Q70.1,-52.2 70,-52.2L69.4,-52Q68.9,-51.7 68.4,-51.65Q67.9,-51.6 66.5,-51.7Q65.4,-51.9 64.4,-51.9L62.6,-51.9L60.1,-51.5L59,-51.3L57.8,-50.8L56.7,-50.3L56.7,-52L56.6,-53.7L56.6,-54.6Q56.6,-55.4 56.7,-55.9L56.8,-56.5Q57,-57.5 57.1,-57.9L57.7,-60.4L58.5,-63.2Q58.9,-64.3 58.9,-64.65Q58.9,-65 58.7,-65.5Q58.5,-66 58.3,-66.5L57.3,-67.8Q56.7,-68.5 56.1,-69.1L53.2,-71.6L51.8,-72.4Q51.3,-72.6 50.7,-72.6Q50.1,-72.6 49.85,-72.7Q49.6,-72.8 49.55,-72.95Q49.5,-73.1 49.35,-73.15Q49.2,-73.2 48.95,-73Q48.7,-72.8 48.1,-73Q47.9,-73 47.45,-73.25Q47,-73.5 46.7,-73.8Q45.8,-74.6 45.7,-74.6Q45.6,-74.6 45.6,-74.5Q45.5,-74.3 45.5,-74.2ZM67.1,-45.45Q67.5,-45.4 67.8,-45.2L68.3,-44.9Q68.4,-44.7 68.4,-44.55Q68.4,-44.4 68.05,-44.1Q67.7,-43.8 66.9,-42.9L66.4,-42.6Q64.6,-41 64.2,-40.8L62.7,-39.8Q62.1,-39.4 62.35,-39.6Q62.6,-39.8 62.1,-39.4L61.5,-39L58.8,-37.5L57.6,-36.8Q56.5,-36.1 56.95,-36.3Q57.4,-36.5 56.55,-36.1Q55.7,-35.7 56.45,-37Q57.2,-38.3 56.3,-39Q56.3,-40.8 56.4,-41.45Q56.5,-42.1 56.6,-42.2L57.2,-42.6Q57.6,-42.8 58,-43.1L58.8,-43.3Q59.1,-43.4 59.25,-43.35Q59.4,-43.3 59.8,-43.5Q60.2,-43.7 60.7,-44L61.9,-44.6L63.1,-45.2Q63.6,-45.4 64.25,-45.5Q64.9,-45.6 65.4,-45.6L66.2,-45.6Q66.7,-45.5 67.1,-45.45Z"></path><path transform="translate(100 100)" d="M38.2,-61.95Q38.8,-60.3 39,-60.1L40.8,-58.1Q41.8,-56.8 43.1,-55.5L43.1,-55.4L43.1,-55.4Q41.9,-53.6 39.95,-51.9Q38,-50.2 34.1,-47.2Q28.4,-42.8 25.45,-39.7Q22.5,-36.6 22.5,-33.3Q22.5,-31.9 23.7,-30.15Q24.9,-28.4 26.65,-27.2Q28.4,-26 29.8,-26Q30.7,-26 31.7,-26.4Q32.7,-26.8 33,-26.9Q34.6,-27.6 37.2,-28.85Q39.8,-30.1 41.4,-31L41.8,-31Q41.8,-28.4 41,-22.6Q40.2,-16.8 39.2,-16.8L39,-16.8Q34.4,-19.4 28.5,-20.35Q22.6,-21.3 15.7,-21.3Q15.7,-20.1 17.1,-18.55Q18.5,-17 19.7,-16.8Q24.5,-16.2 25.2,-16Q28,-15.2 31.2,-14.6Q35.6,-13.8 37.2,-13.2L37.3,-12.9Q37.3,-12.3 34.35,-9.55Q31.4,-6.8 31.1,-6.9L28.6,-5.1L26.8,-4.1L25,-3.1Q22.4,-1.6 20.55,-0.85Q18.7,-0.1 16.7,-0.1Q14.2,-0.1 12.6,-1.1Q11,-2.1 8.3,-4.6Q9,-2.2 11.6,0.25Q14.2,2.7 17.45,4.3Q20.7,5.9 23.2,5.9Q28.9,5.9 34.55,2.85Q40.2,-0.2 44.9,-5Q47,-3.5 53.35,1.5Q59.7,6.5 62.2,8.6Q62.8,9.3 64.75,10.35Q66.7,11.4 67.4,11.4Q68.2,11.4 69,11Q69.8,10.6 70.4,10.4L74.7,9.4Q77.8,8.6 79.8,7.8Q82.4,7 85.05,6.25Q87.7,5.5 89.2,5.5Q89.8,5.5 90.55,5.6Q91.3,5.7 91.7,5.8Q92.9,6.1 94.2,6.1Q94.2,4.9 93.25,3.9Q92.3,2.9 90.8,1.9Q86.8,-0.9 83.3,-2.45Q79.8,-4 75.3,-4.6Q72.7,-5.1 61.15,-8.3Q49.6,-11.5 47.8,-12.5Q47.8,-16.3 48.2,-27.3L48.4,-34.4Q48.4,-35 50.9,-35.7L59.4,-38.1L61.7,-38.1Q61.7,-39.1 60.3,-40.8Q58.9,-42.5 57.1,-43.85Q55.3,-45.2 54.4,-45.2Q54.1,-45.2 53.7,-45.1Q53.3,-45 52.8,-45Q49.4,-43.2 40.05,-38.4Q30.7,-33.6 29.6,-33.3Q29.2,-33.1 27.9,-32.5Q26.6,-31.9 26.3,-31.8Q26.1,-31.9 25.85,-32.4Q25.6,-32.9 25.6,-33.3L25.6,-36.9L26,-37.7Q28.1,-40 29.1,-40.9Q30.4,-42.1 32.05,-42.65Q33.7,-43.2 36.5,-43.7L39,-44.3Q44,-45.6 48.85,-48.65Q53.7,-51.7 53.7,-55.7Q53.7,-56.8 50.35,-60Q47,-63.2 42.95,-66.45Q38.9,-69.7 37.7,-70.2L37.7,-70Q37,-69.5 37,-68.1Q37,-67.3 37.5,-63.6Q37.6,-63.6 38.2,-61.95ZM41.9,-31.25Q41.9,-31.5 42,-31.5Q42.2,-31.5 42.2,-31.25Q42.2,-31 42,-31Q41.9,-31 41.9,-31.25Z"></path><path transform="translate(200 100)" d="M71.4,-70.95Q71.4,-70.9 71.15,-70.75Q70.9,-70.6 70.5,-70.6L69.2,-70.5L67.2,-70Q66.6,-69.9 65.7,-69.7L64.1,-69L59.2,-66.8L52.9,-63.5Q50.4,-61.9 48.8,-61.1L45.4,-59.4Q44.3,-58.8 43.75,-58.65Q43.2,-58.5 43,-58.6Q42.8,-58.7 42.25,-59.35Q41.7,-60 41.2,-60.8Q40.5,-61.9 39.9,-62.6Q39.3,-63.3 38.8,-63.6L37.9,-64.1Q37.5,-64.2 37.35,-64.2Q37.2,-64.2 37.2,-64.2L37.1,-64.1L38.4,-61.9Q39,-61.1 38.75,-61.25Q38.5,-61.4 39.1,-60.4L40,-59L41.2,-57.5Q42.3,-56.1 42.6,-55.8Q43.5,-54.9 44,-54.5Q44.5,-54.1 44.9,-53.85Q45.3,-53.6 46.1,-53.2L47.6,-52.9Q48.2,-52.6 48.5,-52.6Q48.8,-52.6 49.4,-52.75Q50,-52.9 50.55,-53.05Q51.1,-53.2 52.3,-53.8Q53.5,-54.4 54.6,-55L57.5,-56.7L58,-57Q58.5,-57.2 58.9,-57.6L60.6,-58.5L62.9,-59.6L65.1,-60.8L68,-62.2Q68.4,-62.3 68.55,-62.05Q68.7,-61.8 69,-62.2L69.5,-62.5L70.2,-63Q70.5,-63.1 71.1,-63.25Q71.7,-63.4 72.1,-63.4Q73.2,-63.4 73.3,-63.1L73.2,-62.6Q73.1,-62.2 72.8,-61.8L72.3,-60.7Q72,-60.1 71.9,-59.6L71.4,-58.3L70.8,-55.6Q70.7,-55.3 70.7,-53.3L70.4,-49Q70.3,-43.4 70.3,-39Q70.3,-36.4 70.35,-34.95Q70.4,-33.5 70.8,-31.6Q71,-29.9 71.2,-27.75Q71.4,-25.6 71.5,-21.5Q71.5,-18.6 71.6,-16.5L71.7,-14.1L71.7,-14Q71.6,-14 71.5,-14.3L70.1,-16.8L68.5,-19.2L65.1,-24Q64.5,-24.7 63.6,-25.75Q62.7,-26.8 62,-27.5L60.4,-29.2L60.6,-30Q61.4,-31.9 61.7,-32.9L63.2,-36.7Q63.5,-37.7 63.9,-38.2Q64.3,-38.7 64.9,-39.3Q65.5,-39.9 65.9,-40.35Q66.3,-40.8 66.35,-41Q66.4,-41.2 66.3,-41.55Q66.2,-41.9 65.95,-42.3Q65.7,-42.7 65.05,-43.45Q64.4,-44.2 63.65,-44.85Q62.9,-45.5 62.1,-46.2L60.8,-47.2L59.6,-47.9L58.2,-46.8Q57,-45.7 56.4,-45.7Q56.2,-45.7 56.05,-45.65Q55.9,-45.6 55.9,-45.5Q55.9,-45.4 56,-45.1L56.3,-44.7Q56.5,-44.2 56.6,-43.95Q56.7,-43.7 56.5,-43.6Q56.3,-43.2 55.7,-41.4L54.7,-38.9Q54.5,-38.4 54,-36.9Q53.8,-36.3 53.6,-35.9Q53.4,-35.5 53.35,-35.45Q53.3,-35.4 52.8,-35.7L51.7,-36.3L50.4,-37.3L46,-37.2L42.3,-37.2L41.8,-37.3Q41.3,-37.3 41.75,-37.5Q42.2,-37.7 41.75,-38Q41.3,-38.3 41.55,-38.6Q41.8,-38.9 41,-39.35Q40.2,-39.8 40.2,-40.2Q40.2,-40.6 39.3,-41Q38.8,-41.5 38.3,-41.8L37,-42.6Q36.7,-42.6 36.6,-42.5L36,-42Q35.9,-41.8 35.5,-41.5L34.9,-40.9Q34.6,-40.7 34.35,-40.7Q34.1,-40.7 34.05,-40.8Q34,-40.9 33.8,-40.9L33.5,-40.6Q33.3,-40.3 33.1,-40.2Q32.9,-40.1 32.7,-40.1L32.5,-40.1Q32.4,-39.9 32.4,-39.8L32.5,-39.5Q32.6,-39.1 33,-38.9L34.7,-37.3Q34.8,-37 34.85,-36.7Q34.9,-36.4 34.75,-35.95Q34.6,-35.5 34.45,-35.35Q34.3,-35.2 34.2,-35.35Q34.1,-35.5 33.5,-35.6L30.6,-35.8Q29.6,-35.8 29,-36L26.2,-36.3L25.4,-36.3L24.9,-36.3Q24.5,-36.2 25,-36Q25.5,-35.8 25.2,-35.6Q24.9,-35.4 25.7,-35.1Q26.5,-34.8 26.5,-34.5Q26.5,-34.2 27.8,-33.7L29.5,-32.7L33.2,-30.8L31.4,-26.4L30.2,-24.4Q29.7,-23.6 28.5,-22.3Q27.8,-21.6 27.3,-21.3Q26.8,-21 26.1,-20.7L24.9,-20.5Q24.8,-20.5 24.9,-21.2L25,-22.7L25.1,-24.6Q25.1,-25.1 24.75,-26.25Q24.4,-27.4 24.1,-29.2L23.9,-29.9Q23.6,-31.4 23.6,-31.9L23.4,-34.4L23.9,-36.9Q24.1,-37.4 24.1,-37.8L24.1,-38Q23.9,-38.1 23.3,-36.1Q22.6,-33.8 22.5,-33.2L22.2,-30.3L22,-28.5Q21.9,-27.6 21.8,-27.4Q21.5,-26.4 21.15,-25.25Q20.8,-24.1 20.5,-22.9L20.1,-21.2L19.3,-17.7Q19.1,-16.9 19,-16.6Q18.7,-16 18.55,-16.2Q18.4,-16.4 18.4,-17.1L18.3,-18.7L18.4,-21.4L18.5,-24.6L18.9,-28.2Q19,-29.9 19.3,-31.3Q19.8,-34.2 20.15,-35.3Q20.5,-36.4 21,-37.4L23.4,-42.4L24.4,-44.1Q24.9,-44.9 25.1,-45.5Q25.3,-46.1 25.3,-46.65Q25.3,-47.2 25.1,-47.6L24.5,-48.5Q24.3,-48.9 23.8,-49.4L22.8,-50.2L21.9,-50.9Q20.9,-51.7 21,-51.4Q20.8,-51.7 20.7,-51.7L20.3,-51.7Q20.1,-51.5 19.8,-51.2L19.2,-50.9Q19,-50.8 18.95,-50.95Q18.9,-51.1 18.75,-51.1Q18.6,-51.1 18.4,-50.8L18,-50.6Q17.8,-50.5 17.55,-50.5Q17.3,-50.5 17.3,-50.35Q17.3,-50.2 17.5,-49.9Q17.7,-49.6 18,-49.25Q18.3,-48.9 18.65,-48.65Q19,-48.4 19.15,-48.15Q19.3,-47.9 19.3,-47.75Q19.3,-47.6 19.2,-47.3L19,-46.6L18.1,-45.1L16.7,-42.1L15.8,-40.1Q15.1,-38 15.3,-38Q15.5,-38 14.8,-36.2L14,-32.5Q13.9,-31.5 13.8,-29.4L13.5,-25.2Q13.4,-23 13.4,-20.7L13.4,-17.4Q13.4,-16.2 13.5,-15L13.9,-11.7Q14,-10.8 14,-10.2L14,-9.3L14.1,-8.7Q14.3,-8.2 14.4,-8.05Q14.5,-7.9 14.65,-6.9Q14.8,-5.9 14.95,-5.35Q15.1,-4.8 15.8,-3.8Q16.2,-3.2 16.9,-2.5L18.3,-1.2L19.3,-0.1Q20.5,0.9 20.2,0.5L20.8,0.6L21,0.6Q21.4,0.6 21.35,0.35Q21.3,0.1 21.85,-0.8Q22.4,-1.7 22.55,-2.95Q22.7,-4.2 23.25,-5.25Q23.8,-6.3 23.6,-6.6L25.3,-12.7L24.5,-18.9Q24.5,-19.2 25.6,-19.1Q26,-19.1 26.9,-18.8L28.5,-18.2L30,-17.6Q30.3,-17.5 30.55,-17.5Q30.8,-17.5 31.2,-17.7Q31.3,-17.8 32.3,-18.3L33.2,-18.8Q34.2,-19.3 34.6,-19.65Q35,-20 35.4,-20.6Q35.8,-21.2 36.2,-22.1L37,-23.5Q37.8,-25.6 37.9,-26.1L38.2,-26.5Q38.2,-26.7 38.3,-26.7L39.6,-24.4Q40,-23.8 40.7,-23L41.7,-21.7Q42.4,-21.1 42.5,-20.8Q42.6,-20.5 42.5,-20.4Q42.4,-20.3 42.3,-20.3L41.9,-20.4Q41.8,-20.4 41.4,-20.45Q41,-20.5 40.5,-20.5L39.1,-20.6L40.2,-20.1L43.2,-18.3L45.2,-17L47.4,-17Q48.2,-17 49.3,-16.9L51,-16.6Q51.8,-16.4 52.25,-16.4Q52.7,-16.4 52.95,-16.5Q53.2,-16.6 54.6,-18.3L55.8,-19.9Q56.4,-20.9 56.8,-21.6L57.7,-23.4L62.6,-18.9Q64.7,-16.9 64.5,-17.3Q64.3,-17.7 66.4,-16Q68.5,-14.3 68.4,-14.7L70.3,-13.9Q70.9,-13.5 71.1,-13.6L71.6,-13.6L71.6,-8.4Q71.5,-7.2 71.4,-6.6L70.9,-4.9Q70.5,-4 70.2,-3.4Q69.7,-2.2 69.3,-1.4Q69.2,-1.2 68.55,-1.15Q67.9,-1.1 66.1,-1.1L63.3,-1.3L60.8,-1.8L58.9,-2.3Q58.1,-2.5 57.9,-2.5Q57.7,-2.5 57.4,-2.8L56.4,-3.1L54.6,-4.2Q54.2,-4.4 54,-4.6L53.5,-4.7Q53.4,-4.7 53.4,-4.6L53.3,-4.3Q53.3,-4.2 53.6,-3.7L54.2,-2.8L55.3,-1.4L56.7,-0.1L58.3,1.3Q60,2.8 60.55,3Q61.1,3.2 63.1,4.9L65.3,6.7L69.1,9.8L70.5,10.9Q71.4,11.5 72,11.7L73.2,12.3Q73.8,12.6 74.05,12.6Q74.3,12.6 74.75,12.35Q75.2,12.1 75.7,11.6Q76.8,10.8 77.7,9.8Q78.1,9.4 78.6,8.7L79.4,7.5Q79.6,7 79.9,6.3Q80.2,5.6 80.4,5.2Q80.8,4 81.3,2.7Q81.6,2 81.75,1.5Q81.9,1 81.9,-0.1L81.9,-3.4Q81.8,-5.4 81.8,-8.2L81.5,-13.1Q81.5,-15.2 81.4,-17L81.3,-19.2Q81.2,-20.5 80.7,-22.7Q80.6,-23.6 80.35,-24.7Q80.1,-25.8 79.85,-26.55Q79.6,-27.3 79.5,-28.2Q79.4,-29.1 79.4,-30.8Q79.4,-33.3 79.6,-41.2Q79.7,-45.5 79.85,-47.5Q80,-49.5 80.3,-50.8Q80.6,-52.1 80.9,-53.1Q81.2,-54.1 81.9,-55.4L83,-57.7L82.7,-59.3Q82.6,-60.2 82.3,-60.8Q82,-61.4 81.6,-62.1Q81.2,-62.8 80.35,-63.75Q79.5,-64.7 78.7,-65.5Q77.9,-66.3 76.8,-67.25Q75.7,-68.2 75,-68.8L72.3,-70.6L71.7,-71Q71.4,-71 71.4,-70.95ZM42.5,-34.8L44.7,-32.6L45.9,-31.7Q46.6,-31.3 47.1,-31Q47.8,-30.6 48.3,-30.5Q48.8,-30.4 49.5,-30.4L50.4,-30.4Q50.7,-30.3 50.9,-30.15Q51.1,-30 51.1,-29.9Q51.1,-29.8 50.9,-29.6Q50.7,-29.4 50.5,-29L49.9,-27.9Q49.6,-27.3 49.2,-26.4L48.3,-25L47.6,-23.8Q46.8,-22.6 46.85,-22.9Q46.9,-23.2 46.3,-22.4Q45.7,-21.6 45.85,-22.2Q46,-22.8 45.35,-22.75Q44.7,-22.7 44.7,-24.1L43.9,-25.9L42.8,-27.6Q42.3,-28.2 42,-28.8Q41.7,-29.4 41.7,-29.6Q41.7,-29.8 41.55,-30.05Q41.4,-30.3 41.3,-30.4L40.8,-30.6Q40.6,-30.8 40.4,-30.8Q40.2,-30.8 39.95,-30.9Q39.7,-31 39.65,-31.15Q39.6,-31.3 39.7,-31.9L40,-33.1L40.7,-35.4L41,-35.8Q41.1,-36 41.2,-36L41.7,-35.6Q42,-35.2 42.5,-34.8Z"></path><path transform="translate(300 100)" d="M36.1,-64.4Q36.1,-64.7 37.5,-64.7L39,-65L40.7,-65.6L43.8,-67.2L45.7,-68.4L46.2,-68.9L44.8,-70.5Q43.2,-72.1 42.2,-73.4L41,-74.8L39.4,-76.4Q37.3,-78.5 38.2,-78.5L38.7,-78.3L41.6,-76.5Q42,-76.2 42.15,-76Q42.3,-75.8 42.7,-75.5L43.6,-74.8L44.5,-74.2L45,-74L45.2,-74Q45.3,-73.9 45.4,-73.75Q45.5,-73.6 45.8,-73.6Q46.1,-73.5 46.7,-73.5Q48,-73.5 49.3,-74.2L50.8,-74.8L51.6,-74.3L51.6,-74.4Q51.6,-74.5 52.7,-73.7L54.1,-72.8L55.6,-71.4Q57.5,-69.7 59.4,-67.3L60,-66.1Q60,-65.8 57.9,-63.9Q56.8,-62.7 56.5,-62.5Q55.9,-61.9 55.5,-61.8L54.2,-61.4Q53.1,-61 52.15,-60.95Q51.2,-60.9 49.7,-60.9L46.9,-61.2Q45.6,-61.4 44,-61.8L41.5,-62.6Q40.1,-63 38.6,-63.6Q37.1,-64.2 36.7,-64.2Q36.1,-64.2 36.1,-64.4ZM16.8,-34.1Q16.6,-34 16.6,-34.2L16.9,-35L17,-36L17.1,-38.1Q17.1,-39.6 17.2,-40.4Q17.2,-40.9 17.25,-41.65Q17.3,-42.4 17.6,-43.4L17.8,-45.1L18.3,-46.8Q18.4,-47.4 18.6,-47.75Q18.8,-48.1 18.9,-48.2L18.8,-48.4L19.3,-49.4L19.6,-50.2L19.8,-50.5Q19.8,-50.5 20.2,-51.5L20.7,-52.6L21.3,-53.8L21.9,-54.8Q22.1,-55 22.15,-55.2Q22.2,-55.4 22.4,-55.6L22.8,-55.8Q23.2,-56.4 23.2,-56.6Q23.2,-57 21.8,-58.4Q21.1,-59.1 20.7,-59.5Q20.3,-59.9 20.2,-60.1Q20.2,-60.2 20.5,-60.2Q21.1,-60.2 21.6,-60.1L25.4,-60L26.9,-58.9Q28.8,-57.7 30.5,-56L33,-53.7L33.8,-52.9L34.4,-52.2Q35,-51.4 35.25,-51.3Q35.5,-51.2 35.8,-51.4L38.2,-52.6L41.4,-54Q42.6,-54.4 43.05,-54.65Q43.5,-54.9 43.9,-55L45.7,-55.7Q48.5,-56.8 49.5,-56.9L49.9,-57.1Q51.3,-57.4 51.6,-57.7Q52.6,-57.9 53.2,-58.1Q53.3,-58.3 54.5,-58.55Q55.7,-58.8 56.7,-59.1L61.1,-60.1L65.2,-60.7L67.7,-61Q69.1,-61.2 70.7,-61.3Q72.3,-61.4 72.5,-61.6Q72.9,-61.9 73,-61.8L73.3,-61.8L73.4,-61.6L73.6,-61.5Q74,-61.3 73.75,-61.55Q73.5,-61.8 74.2,-61.4L75.1,-60.9L76.3,-60.2Q76.9,-59.7 77.65,-59.25Q78.4,-58.8 79.1,-58.1Q79.7,-57.4 80.15,-57Q80.6,-56.6 81,-56L81.5,-55.1L81.7,-54.5Q81.9,-53.9 81.7,-53.7L81.5,-53.3Q81.3,-53 79.1,-51.1L73.5,-46.5Q72.1,-45.6 70.4,-45.1L68.3,-44.6L66.1,-44.1L61.7,-43.8Q61,-43.7 60.2,-43.7Q59.4,-43.7 58.2,-44Q57.2,-44.5 55.7,-44.5L55.1,-44.6Q54.9,-44.6 54.9,-44.7Q54.9,-44.8 55.3,-45L57.7,-45.9L58.8,-46.5Q59.7,-47.2 60.3,-47.4L61.1,-48L61.9,-48.5L64.3,-50.3L66.4,-51.6L67.6,-52.7L69,-54Q69,-54.2 69.5,-54.5Q70,-54.8 69.8,-54.9L67.5,-54.9L66.1,-54.6L63.8,-53.9L61.2,-53.6L57.4,-52.5L54.2,-51.4L51.6,-50.7Q50.9,-50.5 50.15,-50.15Q49.4,-49.8 48.1,-49.3L44.6,-47.9Q43.3,-47.4 40.5,-45.9L37.4,-44.4L36.3,-43.8L35.2,-42.9L34,-42L33,-41Q32.7,-40.7 32.3,-39.9L31.6,-38.5L31.3,-37L31.1,-35.8Q31.1,-35 31.5,-32.3Q32.2,-28.6 32.2,-24.8L32.2,-24.5Q32.2,-23.5 32,-22.9L31.5,-21.9L30.9,-20.9L30.4,-20.3L29.8,-19.7Q29.5,-19.1 28.8,-19.1Q28,-19.1 26.8,-20L25.4,-21.1L25.4,-21Q25.4,-20.8 23.7,-22.5L19.9,-26.9Q19,-27.7 18.25,-28.75Q17.5,-29.8 17.3,-30Q17,-30.6 17,-32.4Q17,-34.2 16.8,-34.1ZM99.3,-22Q99.2,-21.8 98.9,-21.8L98.1,-21.9Q97.5,-22.1 97.3,-22.3L96.3,-22.6L91.2,-22.6Q88.9,-22.6 84.1,-22.2L81.8,-21.8Q80.9,-21.7 79.5,-21.3L75.2,-20.3L71.6,-19.6L71.4,-19.5Q69.8,-19.3 67.7,-18.8Q64.4,-18 62.6,-17.4L57.6,-16Q56.8,-15.6 55.4,-15.3L53.2,-14.4L50.7,-13.3Q50.5,-13.2 50.4,-13.1Q50.3,-13 50.4,-13L52.6,-12.4L56.3,-11.9Q57.6,-11.8 59.2,-10.9L63,-8L64.1,-6.9L64,-6.5Q64,-6 64.8,-6.2L65.2,-6.3Q65.8,-6.3 65.3,-5.4Q64.7,-4.3 65.6,-4.5L65.7,-4.5Q66,-4.5 66,-4.2Q66,-4 65.7,-3.4Q65.4,-2.8 65.3,-2.55Q65.2,-2.3 65.5,-2.4L65.6,-2.4Q65.7,-2.4 65.7,-2.3Q65.7,-2.1 65.3,-1.4L64.4,-0.3L63,1.3L61.2,3L59.4,4.5Q58.6,5.2 56,7.1L51.4,10.1Q51,10.4 49.95,11Q48.9,11.6 48.4,11.6Q48,11.6 47.1,11L45.4,9.8L42.8,7.5L40.2,4.8L37.6,2.1L33.4,-2.8Q33.9,-2.6 33.3,-3.2L33.1,-3.3Q32.7,-3.1 32.3,-2.75Q31.9,-2.4 31.5,-2.2L28.9,-0.1Q27.6,1.3 26.5,1.4L26.1,1.4Q25.5,1.4 24.7,1.1Q23.7,1 22.8,0.3Q22.5,0.1 20.6,-1.4Q20.1,-1.7 19.4,-2.6L18,-4.2Q17.1,-5.2 15.8,-6.8L15.4,-7.7Q15.3,-8 15.4,-8.6L15.4,-9.2Q15.4,-9.4 15.25,-9.65Q15.1,-9.9 15.5,-10.1Q16.2,-10.7 17.2,-11.5Q17.8,-12.1 18.3,-12.15Q18.8,-12.2 18.9,-12.3L19.6,-12.4Q20,-12.5 20.5,-12.5Q20.9,-12.5 21.1,-12.35Q21.3,-12.2 21.5,-11.8L21.7,-10.8Q21.9,-10.1 22.05,-9.85Q22.2,-9.6 22.4,-10L23.1,-10.6Q24,-11.4 26.15,-12.65Q28.3,-13.9 29.4,-14.2L30.3,-14.4Q30.5,-14.4 30.75,-14.7Q31,-15 31.2,-15.2L32,-15.5L34.5,-16.5Q34.8,-16.7 34.85,-16.65Q34.9,-16.6 35.2,-16.7L36.2,-17.4Q36.4,-17.6 36.7,-17.6L37.4,-17.7L38.7,-18.1L42.2,-19.4Q43.2,-19.5 43.4,-19.9L44,-20.2L44.4,-20.9Q44.4,-21.2 45.1,-23.4L45.7,-25.1L46.7,-27Q47.3,-27.9 47.5,-28.8Q47.5,-29.4 48.05,-29.7Q48.6,-30 48.5,-30.2L48.5,-30.3Q48.5,-30.4 48.8,-30.65Q49.1,-30.9 48.9,-31.1Q48.7,-31.2 48.85,-31.4Q49,-31.6 48.6,-31.7L46.9,-31.7L45.6,-31.6Q45.2,-31.6 44.85,-31.7Q44.5,-31.8 44,-32.3Q43.7,-32.4 42.8,-33.1L41.6,-34.2L39.9,-36.3Q39.9,-36.6 39.5,-37.1Q39.2,-37.6 39.25,-37.8Q39.3,-38 39.2,-38.2Q39.1,-38.4 39.3,-38.3Q39.7,-38 39.7,-38L40.3,-37.3L40.7,-37.1L40.8,-37Q40.8,-37 41.6,-37.5L42.7,-38.1L42.9,-38.2L44.8,-39.3Q45.5,-39.7 46.7,-40.3Q47.9,-40.9 48.5,-41.2Q49.1,-41.5 49.2,-41.75Q49.3,-42 49.5,-42.1L49.6,-42.1Q49.8,-42.1 49.95,-41.9Q50.1,-41.7 50.7,-41.9Q50.9,-42 51.3,-42Q51.6,-42 52.8,-41.5L55.5,-39.4Q56.4,-38.5 56.8,-38.2L57.9,-37.1Q58.8,-36.2 59.2,-35.2L59.6,-34Q59.8,-33.6 59.8,-33.1Q59.8,-32.7 59.5,-31.6L58.2,-28.1L55.3,-23L55.4,-23Q55.8,-23 57.9,-23.6L62.1,-24.6L64.8,-25.1L67.6,-25.5L71.4,-26.4Q74.4,-26.9 75.5,-27.1L80.6,-27.8L84,-28.1Q85.7,-28.2 88.6,-28.2Q91.6,-28.2 91.9,-28.4L92.1,-28.4Q92.1,-28.4 92.2,-28.3Q92.3,-28.2 92.6,-28.2L92.8,-28.1L93.4,-27.8L94.5,-27.2L96.7,-25.4L97.6,-24.6L98.5,-23.5L99.1,-22.6Q99.4,-22.2 99.3,-22ZM50.3,-8.6L49.3,-9.2L48.6,-9.7L46.8,-11.4L45,-10.3Q41.9,-8.8 40.4,-7.5L39.7,-7.1Q39.5,-6.9 39.3,-6.85Q39.1,-6.8 39,-6.7Q39,-6.7 38.75,-6.55Q38.5,-6.4 38,-6.1L37.1,-5.5Q37.2,-5.6 36.5,-5.3L34.4,-4Q33.6,-3.6 33.2,-3.3L33.4,-3.2L35.3,-1.6Q36.8,-0.3 37.9,0.8L38.1,0.9L39.3,2.1L41.6,4.2Q41.9,4.4 42.55,4.9Q43.2,5.4 43.6,5.4Q44,5.4 44.6,5.1L45.6,4.8Q46.1,4.7 46.45,4.5Q46.8,4.3 46.9,4.1Q46.9,4 47.45,3.7Q48,3.4 49.5,2.5L51.8,1.1L51.8,1L52.1,0.7L53.1,-0.1Q54.5,-1 55.1,-1.6Q55.5,-1.9 58,-4.2Q58.7,-5.1 59.25,-5.6Q59.8,-6.1 59.6,-6.2L58.2,-6.7Q57.5,-6.9 57.3,-6.8L56.5,-6.8L55.7,-7.2Q55.4,-7.3 54.8,-7.3L51.8,-8.1L50.3,-8.6ZM39.85,-7.15Q39.9,-7.1 39.8,-7.1L39.7,-7.1Q39.8,-7.2 39.85,-7.15ZM39,-6.7L39,-6.7Z"></path><path transform="translate(400 100)" d="M62.9,-69L62.3,-68.6Q61.9,-68.2 61.55,-68.1Q61.2,-68 60.95,-68Q60.7,-68 60.3,-68.1L60,-68.3Q59.7,-68.3 59.65,-68.25Q59.6,-68.2 60,-67.7L60.9,-66.6Q61.4,-65.9 62.3,-65.2L63.7,-64L65.2,-62.9L65.2,-53.5Q65.2,-46.3 65,-45L64.9,-42L64.9,-40.6L64.1,-40.1L62.5,-39.5Q62,-39.3 60.3,-38.6L59.1,-38.1L58.5,-37.9Q58.4,-37.9 55.3,-36.4L50.5,-34.4L49.1,-33.5L48.5,-34.2Q48.1,-34.8 47,-36.1Q46.7,-36.7 46.35,-37.05Q46,-37.4 45.85,-37.4Q45.7,-37.4 45.7,-37.3L46,-36.3Q46,-36.1 45.9,-36.05Q45.8,-36 45.8,-35.85Q45.8,-35.7 45.95,-35.6Q46.1,-35.5 46.2,-35.05Q46.3,-34.6 46.3,-34.2Q46.4,-33.4 46.65,-32.85Q46.9,-32.3 47.6,-31.5L48.9,-30.2L50.2,-28.8L51.5,-27.8Q52.8,-26.5 52.7,-26.9Q53.8,-26.4 54,-26.4L55.4,-26.8L61.7,-29.3Q62,-29.6 63.6,-30.2L65,-30.8Q65,-30.8 65.1,-27.1Q65.2,-23.4 65.2,-18.5L65.3,-8.6Q65.3,-3.5 65.4,-1.4Q65.5,2.1 65.8,6.2Q66,8.8 66.1,11.4L66.1,13.2L66,14.6Q65.9,16.1 65.85,15.5Q65.8,14.9 65.65,15.9Q65.5,16.9 65.45,16Q65.4,15.1 65.4,16.2Q65.4,17.3 65.6,16.5Q65.8,15.7 66,16.7L66.7,16.9L67.7,17Q68.8,17.2 69.5,16.8Q69.9,16.6 70.2,16.1L70.9,14.9L71.6,13.4Q71.8,12.7 71.85,12.4Q71.9,12.1 71.9,11.3L71.9,9.4L71.7,6.9Q71.6,5.5 71.6,4.4L71.3,-0.3Q71.2,-1.4 71.25,-1.95Q71.3,-2.5 71.6,-3.15Q71.9,-3.8 71.95,-4.45Q72,-5.1 72,-6.6L72,-11.5Q72,-18.6 72.3,-18.9L72.4,-20.1Q72.5,-21.1 72.5,-22.3L72.6,-24.6Q72.6,-25.8 72.8,-26.2L72.9,-27.5L72.9,-30.6L73,-33.7L74.8,-34.4Q76.7,-35.1 76.9,-35.25Q77.1,-35.4 79.4,-36.3L83.3,-37.8Q85.1,-38.4 85.35,-38.5Q85.6,-38.6 86,-38.75Q86.4,-38.9 86.8,-38.9Q87.4,-39 87.9,-38.9L89.1,-38.5L90.1,-38Q90.8,-37.8 91.1,-37.75Q91.4,-37.7 91.8,-37.8L92.4,-37.9Q92.7,-37.9 92.95,-38.15Q93.2,-38.4 93.2,-38.6Q93.3,-39.2 92.8,-39.9Q92.7,-40.3 92.3,-40.9L91.5,-41.9L90.3,-43.1Q89.4,-43.9 88.5,-44.7L86.8,-46.1L84.8,-47.3L84.2,-47.3L83.1,-47.2L81,-46.8L80.2,-47Q79.8,-47 79.5,-47.1L78.6,-47.7Q77.8,-48.2 77.15,-48.8Q76.5,-49.4 76,-49.7L75.4,-50.1Q75.3,-50.1 75.6,-49.65Q75.9,-49.2 76.4,-48.8L78,-46.8L78.3,-46.2Q78.4,-46 78.4,-45.85Q78.4,-45.7 78.2,-45.6L77.6,-45.4L77.3,-45.4Q76.1,-45 75.65,-44.75Q75.2,-44.5 74.8,-44.5L74.5,-44.4Q74.3,-44.4 74.25,-46.2Q74.2,-48 74.2,-50.6L74.2,-54.8Q74.3,-56.2 74.4,-56.75Q74.5,-57.3 74.8,-58.3Q75.1,-58.9 75.2,-59.55Q75.3,-60.2 75.3,-60.5Q75.3,-60.8 75.2,-61.3Q75.1,-61.8 74.9,-62.2Q74.7,-62.6 74.05,-63.45Q73.4,-64.3 72.6,-65.1Q71.8,-65.9 70.7,-66.9L68.8,-68.3L67.2,-69.3Q66.5,-69.7 66.25,-69.7Q66,-69.7 65.5,-69.5L63.8,-69.2L63.6,-69.2L63.5,-69.4Q63.3,-69.5 63.2,-69.5Q63.1,-69.4 62.9,-69ZM23,-68.9Q23,-68.8 23.1,-68.7L23.7,-68Q24,-67.6 24.15,-67.25Q24.3,-66.9 24.45,-66.2Q24.6,-65.5 24.6,-64.7Q24.7,-63 24.5,-62.8Q24.3,-62.6 24.3,-62.5Q24.3,-62.4 24.5,-62.3Q24.7,-62.2 24.8,-61.9Q24.9,-61.6 24.9,-61.1L24.9,-59.8Q24.9,-59.6 25.5,-59L26.8,-57.5Q27.4,-56.5 28.2,-55.6L29.9,-53.8Q30.5,-53.1 30.15,-53.35Q29.8,-53.6 29.9,-52.95Q30,-52.3 29.15,-52.35Q28.3,-52.4 28.1,-51.7L26.9,-51.1L25.7,-50.6Q24.5,-50.1 24.5,-50.3L23.6,-50.1L25.9,-49.1Q27.2,-48.5 29.3,-48.3L31.8,-47.9L36.2,-48.3Q37.3,-48.5 38.1,-48.7Q38.9,-48.9 40.5,-49.1L43.1,-49.7Q43.4,-49.8 43.9,-50.25Q44.4,-50.7 44.7,-51.05Q45,-51.4 45.6,-52.4L46.6,-54.1Q47.3,-55.5 47.55,-56.2Q47.8,-56.9 47.8,-57.6Q47.8,-58.3 47.65,-58.65Q47.5,-59 47.2,-59.6Q46.9,-60 46.3,-60.7L45,-62L42,-64.8L40.6,-65.8Q39.3,-66.9 39.6,-66.4Q39.1,-66.6 38.95,-66.7Q38.8,-66.8 38.65,-66.7Q38.5,-66.6 38.3,-66.4Q37.9,-66 37,-65.5L35.6,-64.7Q35.3,-64.5 35.25,-64.5Q35.2,-64.5 35.2,-64.6L35.2,-64.9Q35.3,-65.5 35.25,-65.5Q35.2,-65.5 35.1,-65.3L34.6,-64.6Q34.2,-64.1 33.7,-63.55Q33.2,-63 32.8,-62.8L31.9,-62.3Q31.6,-62 31.45,-62Q31.3,-62 30.85,-62.45Q30.4,-62.9 29.9,-63.5Q28.6,-65.1 27.5,-65.9L26.5,-66.9L24.5,-68.4Q23.5,-69.2 23.6,-68.9L23.1,-69Q23,-69 23,-68.9ZM36.6,-45.5Q36.3,-45.1 35.7,-44.8L34.5,-43.9L33.6,-43.6Q33.4,-43.4 33.3,-43.4Q33.2,-43.4 33.2,-43.65Q33.2,-43.9 33.05,-43.85Q32.9,-43.8 32.3,-43.2Q32.1,-42.8 31.5,-42.35Q30.9,-41.9 30.4,-41.6L27.1,-39.7L24.3,-37.9Q23.6,-37.4 23.3,-37.2Q23,-37 22.35,-36.6Q21.7,-36.2 21,-35.6Q18.8,-34 17.6,-33.3L17.3,-33.1Q15.5,-31.9 15.15,-31.7Q14.8,-31.5 14.4,-31.3Q14,-31.1 13.6,-31.1Q13.2,-31.1 12.9,-31.3Q12.6,-31.5 12.35,-31.75Q12.1,-32 12,-32.3L11.8,-32.8Q11.7,-32.9 11.4,-33.3L11.1,-33.8L10.6,-34.3Q10.2,-34.6 10.35,-34.4Q10.5,-34.2 10.25,-34.3Q10,-34.4 10.15,-33.95Q10.3,-33.5 10.05,-33.65Q9.8,-33.8 9.95,-33.5Q10.1,-33.2 9.85,-33.2Q9.6,-33.2 9.85,-32.65Q10.1,-32.1 10.05,-31.9Q10,-31.7 10.2,-31.4L11.9,-29.3Q12.6,-28.5 13.15,-28.15Q13.7,-27.8 14.35,-27.25Q15,-26.7 15.55,-26.55Q16.1,-26.4 16.9,-26Q17.7,-25.6 18.1,-25.7Q18.5,-25.8 18.9,-25.55Q19.3,-25.3 19.55,-25.7Q19.8,-26.1 20.4,-26Q21,-25.9 22.05,-27Q23.1,-28.1 24.8,-28.8L27.4,-30.4L28.6,-31Q29.8,-31.7 28.8,-31.1Q27.8,-30.5 28.95,-31.3Q30.1,-32.1 29.4,-31.75Q28.7,-31.4 30.1,-32.2Q30.9,-32.7 31.1,-32.75Q31.3,-32.8 31.55,-32.65Q31.8,-32.5 31.85,-32.25Q31.9,-32 31.7,-31.2Q31.5,-30.4 31.1,-27.4L31,-24.4L30.9,-20.7Q31,-19.1 31,-17.9L30.9,-16.3Q30.7,-16 30.7,-15.85Q30.7,-15.7 30.9,-15.55Q31.1,-15.4 31.15,-15Q31.2,-14.6 31.2,-13.5Q31.1,-12.7 31.15,-11.95Q31.2,-11.2 31.3,-11.1L32.9,-8.9Q33.9,-7.6 34.35,-7.3Q34.8,-7 36.1,-5.5L37.6,-4.2L38.7,-3.4Q39.8,-2.5 39.35,-3.05Q38.9,-3.6 39.9,-2.95Q40.9,-2.3 40.45,-3.2Q40,-4.1 41,-3.6Q41.8,-4.4 42.2,-4.9Q42.3,-5.1 42.7,-5.7L43.2,-6.6L43.7,-8.1L44.1,-10.1L44.6,-12.7Q45.1,-15.2 45,-15.2Q45.3,-17.9 45.6,-20.9Q45.7,-22.3 45.8,-22.9Q45.8,-23.8 45.7,-24.7Q45.7,-25.5 45.3,-27.1Q45.2,-28.6 45.1,-29.9L44.9,-31.5Q44.9,-31.7 44.7,-32.3L44.5,-33.3Q44.4,-33.8 44.35,-34.5Q44.3,-35.2 44.1,-35.7L44.1,-36.6L44.1,-36.8Q44,-37 43.85,-36.7Q43.7,-36.4 43.6,-36.4Q43.5,-36.4 43.5,-36.65Q43.5,-36.9 43.65,-37.15Q43.8,-37.4 44,-37.7L44.6,-38.7Q44.7,-39 44.8,-39.35Q44.9,-39.7 44.9,-39.9L44.5,-40.6L43.8,-41.5Q43.4,-42 42.7,-42.7Q42,-43.4 41.2,-43.9Q39.4,-45.5 38.8,-45.9L37.7,-46.2Q37.6,-46.2 37.3,-46.1Q36.9,-45.9 36.6,-45.5ZM43,-35.1Q43.1,-35.1 43.3,-35.4L43.5,-35.5Q43.5,-35.5 43.5,-35.2L43.5,-34.5L42.7,-31L41.8,-28.4Q41.6,-27.5 41.6,-27.7Q41.6,-27.9 41,-26.4Q40.2,-24.7 39.7,-23.4Q39.4,-22.8 39.25,-22.5Q39.1,-22.2 38.95,-22.2Q38.8,-22.2 38.8,-22.6L38.7,-23.4Q38.6,-23.8 38.7,-24.65Q38.8,-25.5 39,-26.25Q39.2,-27 39.7,-28.2Q40.2,-29.4 40.8,-30.6L42.1,-33.4Q42.1,-33.5 42.1,-33.5L41.8,-33.4Q41.7,-33.3 41.65,-33.35Q41.6,-33.4 41.65,-33.55Q41.7,-33.7 41.8,-33.7L42.3,-33.8Q42.6,-33.8 42.6,-34L42.7,-34.4L42.5,-34.3Q42.1,-33.9 42.1,-34.2L42.6,-35.1Q42.8,-35.7 42.9,-35.6L43.1,-35.7L43.1,-35.6L43.1,-35.4Q42.9,-35.1 43,-35.1Z"></path><path transform="translate(500 100)" d="M76.05,-71.75Q75.5,-71.7 75.2,-71.6L74.6,-71.4Q74.4,-71.3 74.6,-71.2L74.8,-70.8Q75,-70.6 77.1,-69.5Q77.9,-69.1 78.6,-68.75Q79.3,-68.4 79.4,-68.25Q79.5,-68.1 79.5,-67.85Q79.5,-67.6 79.4,-67.15Q79.3,-66.7 79.3,-66.1L79,-63.1L78.4,-57.8Q78.2,-56.2 78.2,-55.1L77.7,-41.1L77.8,-37.5Q77.8,-35.7 77.9,-35.1L78.3,-31.7Q78.5,-29.7 78.7,-27.5Q78.8,-24.9 79,-21.8Q79.1,-20.5 79.2,-17.05Q79.3,-13.6 79.3,-9.9Q79.3,-1 79,-0L78.2,3.8L77.8,4.6Q77.5,5.2 77.3,5.2L77.2,5.8L76.3,7.1L75.4,8Q74.6,9 74.5,8.85Q74.4,8.7 73.45,9.65Q72.5,10.6 72.3,10.45Q72.1,10.3 71,11.2Q69.9,12.1 69.4,12Q68.3,12.4 67.75,12.5Q67.2,12.6 66.5,12.6Q65.4,12.5 65.4,12.6Q65.4,12.7 65.45,12.75Q65.5,12.8 65.6,12.8Q65.7,12.8 66.4,13.15Q67.1,13.5 67.9,13.9Q69.4,14.7 70.1,14.9Q70.8,15.1 72.5,15.4L75.3,15.5Q76.5,15.6 78.35,15.55Q80.2,15.5 81.2,15.4Q82.2,15.3 82.9,15Q83.4,14.9 84.05,14.55Q84.7,14.2 85.2,13.85Q85.7,13.5 86.1,13Q86.5,12.5 86.75,12.05Q87,11.6 87.2,10.8L87.7,9.3Q87.8,8.7 88,7.35Q88.2,6 88.2,4.8Q88.3,3.3 88.3,2.3L88.3,1.4Q88.2,1.3 88.1,-4.3Q88.1,-7.7 87.95,-9Q87.8,-10.3 87.6,-11.3L86.6,-15.4L86.3,-17.9L85.8,-22Q85.4,-25.6 85.2,-26.8Q84.9,-28.3 84.8,-30.6Q84.7,-31.5 84.7,-33.4L84.7,-36.9Q84.7,-42.7 84.8,-46.7L85.1,-50.9Q85.1,-52.8 85.2,-53.1Q85.3,-53.4 85.4,-54.25Q85.5,-55.1 85.5,-56Q85.7,-57.5 85.7,-60.6Q85.8,-62 85.7,-62.5Q85.7,-63.2 85.5,-63.7L85.1,-64.8L84.3,-66.2Q83.9,-67 83.5,-67.5L82.3,-68.7L81,-69.9L79.8,-70.8L78.7,-71.4L77.7,-71.8Q77.5,-71.9 77.1,-71.9Q76.6,-71.8 76.05,-71.75ZM20.8,-68.75Q20.8,-68.7 21.4,-68.2L22.6,-66.8Q23.6,-65.9 24.4,-65.3Q25.2,-64.7 26,-64.3L27.5,-63.7L28.3,-63.3Q29.3,-63 28.95,-63.15Q28.6,-63.3 29.4,-62.9Q29.6,-62.6 29.8,-62.4L29.9,-61.5L30,-59.7Q30.1,-56.9 30.4,-55.4L30.6,-51.6L30.7,-50.7L30.8,-46.8L31,-45Q31,-44.4 30.9,-44.2Q30.8,-44 30.6,-43.9Q30.4,-43.8 28.8,-42.8L24,-39.9L21.6,-38.6Q21.3,-38.5 21.3,-38.35Q21.3,-38.2 21.2,-38.2L20.7,-38Q20.1,-37.7 18.7,-36.9L16.8,-35.8L16.2,-35.7Q15.6,-35.6 15.4,-36.1Q15,-36.3 14.4,-36.9L12.4,-38.8Q11.9,-39.2 11.8,-39.2Q11.7,-39.2 11.7,-39.1L11.8,-38.8L12.1,-38L12.4,-37.4L13,-36.3Q13.1,-35.9 13.65,-35.15Q14.2,-34.4 14.9,-33.6L16.2,-32.2L17.4,-31Q18.7,-29.8 18.8,-29.95Q18.9,-30.1 20.4,-28.95Q21.9,-27.8 21.9,-28.3Q21.9,-28.8 22.9,-27.8Q23.7,-27.7 24.9,-28.2Q25.5,-28.3 26.1,-28.7L27.1,-29.2Q28.1,-29.8 28.4,-29.9L31.8,-31.8L31.9,-26.3Q31.9,-24 32.1,-22L32.3,-19.5Q32.3,-18.9 32.5,-18.1L33,-16.5Q33.5,-14.9 33.7,-14.55Q33.9,-14.2 33.3,-13.5L30.6,-10.8Q28.6,-8.6 28.3,-8.4Q28,-8.2 27.25,-7.75Q26.5,-7.3 26.1,-7L25.2,-6.4Q24.3,-6 23.4,-5.4L21.3,-4.4Q20.3,-3.9 19.7,-3.8L16.8,-2.7Q16.1,-2.5 15,-2.25Q13.9,-2 13.1,-1.9Q12.3,-1.8 11.25,-1.7Q10.2,-1.6 9.55,-1.7Q8.9,-1.8 8.35,-1.7Q7.8,-1.6 7.75,-1.55Q7.7,-1.5 7.9,-1.5L8.3,-1.4Q8.5,-1.4 9.4,-1.3L13,-0.2L15,0.3Q16.2,0.5 17.35,0.65Q18.5,0.8 20.3,0.8Q23.6,0.8 27.1,0.2Q30.8,-0.3 32.3,-0.8L34.8,-2.1L37.5,-3.7L38.8,-4.8L39.4,-3.9L42.2,-0.7Q43,0.4 44.4,1.7L46.4,4L48.4,5.7L49.9,6.9Q51.4,8.1 51.3,7.7L52.5,8.3L53.8,8.7L55.2,9L57.7,9.2Q58,9.2 58.35,9.1Q58.7,9 58.7,8.9L58.7,8.4L58.6,7.5Q58.5,6.3 58.3,5Q58.1,4.4 57.4,2.75Q56.7,1.1 55.2,-1.8L50.9,-10.8Q49.3,-14.1 48.7,-15.2L47.8,-17.1L47.5,-17.9Q47.4,-18.3 47.5,-18.4Q47.5,-18.8 48.8,-20.8Q49.3,-21.7 50,-22.5Q50.7,-23.3 51.3,-23.75Q51.9,-24.2 52.4,-24.45Q52.9,-24.7 53.65,-24.8Q54.4,-24.9 54.65,-25.1Q54.9,-25.3 54.9,-25.6Q55,-26 54.2,-27.2L53.1,-28.4L51.7,-29.8L50.2,-31.1L48.8,-32.1Q48,-32.7 47.6,-32.85Q47.2,-33 46.4,-33L45.5,-33.2Q45,-33.2 44.75,-33.3Q44.5,-33.4 44.3,-33.4Q44.1,-33.4 44.1,-33.3Q44.1,-33.2 44.6,-32.4L45,-32Q45,-31.7 44.85,-31.7Q44.7,-31.7 44.4,-31.3L43.4,-30.5L42.3,-29.3Q41.7,-28.6 41.4,-28L39.7,-25.4L39.4,-27.1Q39.4,-29.3 39.2,-31L38.8,-35.9L40.4,-36.7Q41,-37 41.6,-37.3L42.2,-37.5L42.6,-37.7Q43,-38 43.5,-38.3Q45.2,-39.3 46.2,-39.7Q46.8,-40 47.9,-40.5L48,-40.5Q48.2,-40.6 49.2,-40.7Q50.2,-40.8 51.35,-40.85Q52.5,-40.9 53.25,-41Q54,-41.1 54.1,-41.25Q54.2,-41.4 54.2,-41.65Q54.2,-41.9 54,-42.1L53.4,-43.1L52.3,-44.5Q51.6,-45.2 50.6,-46.2Q49.6,-47.2 48.7,-47.9L46.9,-49.2L45.3,-50.2L42.8,-51.6L41.8,-52L41.4,-52.4L41.2,-52.4L41.1,-52.2Q41.1,-52.1 41.2,-52.1L41.7,-52Q42,-51.9 41.9,-51.75Q41.8,-51.6 42.1,-51.4L42.6,-50.9Q43.3,-50.1 43.3,-49.9L42.3,-49.8Q41.6,-49.8 41.5,-49.7L40.8,-49.5Q40.1,-49.1 39.7,-48.6Q39.4,-48.4 39.1,-48.2Q38.8,-48 38.7,-48L38.2,-48L38,-48.1Q37.9,-48.3 37.7,-50.35Q37.5,-52.4 37,-55.4Q36.9,-56.7 36.65,-57.8Q36.4,-58.9 36.2,-59.25Q36,-59.6 35.6,-60.25Q35.2,-60.9 34.8,-61.45Q34.4,-62 33.55,-62.85Q32.7,-63.7 31.9,-64.3L30.4,-65.6L27.7,-67.5L26.7,-67.7Q26.3,-67.8 25.2,-67.9L23.4,-68.2Q22.5,-68.3 22.3,-68.4Q21.6,-68.5 21.35,-68.65Q21.1,-68.8 20.9,-68.8Q20.8,-68.8 20.8,-68.75ZM48.2,-11.7Q48.7,-7.8 49,-6.5Q49.1,-6 49.2,-5L49.3,-3.1Q49.4,-0.8 49.2,-0.45Q49,-0.1 48.8,-0.05Q48.6,-0 48.1,-0L46.5,-0.2L46.1,-0.6Q45.8,-0.7 45.45,-1.1Q45.1,-1.5 44.5,-2.6L43.3,-4.5Q42.6,-5.5 42.3,-6.1Q41.8,-7 41.75,-7.35Q41.7,-7.7 41.8,-7.9Q42.1,-8.4 42.6,-9L47,-17.7L47.4,-16.7Q47.4,-16.4 47.8,-14.8Q48,-13.4 48.2,-11.7ZM45.8,-64.65Q45.9,-64.3 45.9,-64Q45.9,-63.7 46.2,-63.15Q46.5,-62.6 47.2,-61.8L49.7,-58.9L50.9,-57.7L46.9,-54Q46.7,-53.8 46.2,-53.6L45.5,-53.2Q45.1,-53.1 44.9,-53L44.5,-52.6Q44.4,-52.5 44.5,-52.45Q44.6,-52.4 44.8,-52.5Q45,-52.6 45.5,-52.6L46.2,-52.4L47.4,-52Q48.1,-51.8 49,-51.8L51.1,-51.5Q52.5,-51.4 53.8,-51.4L55.8,-51.4Q56.6,-51.5 56.95,-51.55Q57.3,-51.6 57.7,-51.85Q58.1,-52.1 58.5,-52.4Q58.9,-52.7 59.1,-53L59.6,-53.7L60.1,-54.7Q60.6,-55.7 60.6,-56.9Q60.7,-57.5 60.55,-58.05Q60.4,-58.6 60.3,-59L58.7,-61.1L57.4,-62.3Q56.6,-63.1 56,-63.7L54.6,-64.7L53.7,-65.3Q53.2,-65.5 52.95,-65.5Q52.7,-65.5 52.35,-65.35Q52,-65.2 51.8,-65.2Q51.6,-65.2 51.6,-65.3L51.5,-65.5L51.4,-65.5L51.1,-65.4Q51,-65.3 50.95,-65.1Q50.9,-64.9 50.65,-64.6Q50.4,-64.3 50,-64.1L49.2,-63.8Q49,-63.7 48.7,-63.8Q48.2,-64.3 46.9,-65.4L45.8,-66.2L45.2,-66.6Q44.6,-67 45.1,-66.5L45.1,-66.1L45.6,-65.2Q45.7,-65 45.8,-64.65ZM69.6,-52.6L69.2,-50.1Q69.1,-49.2 68.6,-47.3Q68.3,-45.6 67.8,-44L67,-41.4L66.5,-40.2Q66,-39.1 66.1,-40.3Q66.2,-41.5 65.6,-40.5Q65.1,-41 64.1,-41Q63.7,-41 63.2,-41.1Q62.7,-41.2 62.6,-41.4L62.1,-41.7Q61.8,-42 61.65,-42.15Q61.5,-42.3 61.35,-42.4Q61.2,-42.5 61.05,-42.4Q60.9,-42.3 61.25,-41.85Q61.6,-41.4 62.4,-40.6L63.6,-39.4Q64.1,-38.8 64.1,-38.65Q64.1,-38.5 64.4,-38.2L64.7,-38Q64.7,-37.9 64.6,-37.65Q64.5,-37.4 64.4,-36.7L63.7,-35Q63.6,-34.8 63.65,-34.8Q63.7,-34.8 63.7,-34.65Q63.7,-34.5 63.6,-34.2L62.6,-30.1Q62.4,-28.8 62.4,-28.1Q62.1,-27 62.15,-26.6Q62.2,-26.2 62.5,-25.6Q62.7,-25.3 63.2,-24.6Q63.7,-23.9 64.3,-23.3L65.6,-21.6L67.3,-20L68.8,-18.7Q70.2,-17.5 69.9,-17.8L70.6,-17.5L70.8,-17.5L71.2,-17.7Q71.4,-17.9 71.3,-19.2L71.3,-26.6L71.4,-28.4L71.9,-30.7Q72,-31.5 72,-32.1L72,-33.2Q71.9,-33.8 71.8,-34.1L71.3,-35.1Q70.9,-35.6 70.6,-36.1L69.7,-37.1L69.9,-45L69.9,-50.5L69.7,-52.8Q69.6,-52.7 69.6,-52.6Z"></path><path transform="translate(0 200)" d="M56.3,-49.6Q56.3,-49 56.1,-49L50.5,-48.7Q48.6,-48.6 44.8,-48.3Q44.5,-48.2 41.45,-47.2Q38.4,-46.2 38,-45.4Q37,-43.5 36.6,-39.5Q36.5,-36.3 35.8,-34.5Q34.6,-31.1 34,-28.6Q33.1,-24.7 33.1,-16.6Q33.1,-14.5 33.4,-12.5Q33.7,-10.8 34.4,-7L35.1,-3.6L36.1,1.6L36.6,3L36.9,4.2L36.9,5.4Q36.9,5.7 36.4,5.7Q34.5,5.7 33.1,3.6Q31.5,1.4 30.8,-1.3Q29.9,-4.2 29.9,-5.8L30.5,-5.4L30.7,-7.6L30.5,-11L30.5,-25.3Q30.5,-27.2 30.6,-28.7Q30.8,-31.2 31,-32.3Q32.3,-38.5 32.3,-43Q32.3,-43.4 32.2,-43.6Q32,-43.8 31.6,-43.8Q31.2,-43.8 30.7,-43.2L30.4,-43.4Q29.1,-43.4 21.4,-38.9L16.3,-33.9L15.2,-33.2Q14.5,-32.8 14,-32.8Q12.8,-32.8 10,-35Q7.2,-37.3 5.4,-39.8Q3.3,-42.4 3.3,-43.6Q3.3,-45.8 5.9,-50.5L5.7,-50.7L5.7,-51L5.9,-52.3L6.2,-52Q7.4,-50 7.5,-49.8Q8.1,-48.4 9.4,-47.5Q10.7,-48.8 13.5,-50.4Q14.8,-51.3 17.8,-52.7Q20.8,-54.1 21.2,-54.3Q22,-54.6 22.2,-54.7L23.5,-55.2Q23.6,-55.2 26.9,-56.5Q29.4,-57.5 31.6,-57.7Q32.7,-57.9 34.6,-58.8Q36.7,-59.8 37,-59.8L37,-59L37.5,-59L38.1,-59.3Q39.2,-59.8 43.4,-60.6L46.2,-59.6Q47.9,-59.1 49.7,-57.5Q52.2,-55.3 54.2,-52.9Q56.3,-50.4 56.3,-49.6ZM21.7,-39.2L21.5,-39Q22.5,-39.6 21.7,-39.2ZM20.3,-38.3L18.8,-37.4L20,-38.1L20.3,-38.3Z"></path><path transform="translate(56 200)" d="M6.5,-17.9Q6.1,-16.6 6.2,-16Q4,-8.5 4,-4.1Q4,-1.8 6.25,0.8Q8.5,3.4 10.8,4.9Q12,5.8 12.7,5.8Q13.4,5.8 13.4,5.7Q13.4,-0.9 13.7,-8.4Q13.8,-12 15.35,-14.35Q16.9,-16.7 20.3,-19.2Q20.8,-19.6 21.8,-20.6Q22.8,-21.6 24.1,-21.8L24.1,-21.5Q23.7,-19.9 22.2,-16.8Q21,-13.7 20.5,-12Q20,-10.3 20,-8.5Q20,-6.5 22.25,-3.7Q24.5,-0.9 26.5,-0.9Q29.1,-0.9 33.15,-4Q37.2,-7.1 38.2,-9.8Q38.4,-10.6 38.6,-11.75Q38.8,-12.9 38.8,-13.8L38.8,-14.1Q38.8,-16.3 38.4,-18.5Q38.2,-21.1 38.2,-22.6Q36.1,-18.3 34.45,-16.05Q32.8,-13.8 29.5,-10.9Q29.1,-10.6 28.55,-10.2Q28,-9.8 27.8,-9.8Q27.3,-9.8 27.3,-10Q27.4,-12.7 29.55,-17.35Q31.7,-22 33.4,-23.9Q34.9,-25.7 34.9,-27.2Q34.9,-28.5 32.55,-30.9Q30.2,-33.3 29,-33.1Q28.8,-33.1 28.35,-32.9Q27.9,-32.7 27.6,-32.6L27.3,-33.1Q26.7,-32.4 23.25,-30.15Q19.8,-27.9 18.4,-27.2Q18,-27.2 18,-27.4Q18,-28.2 18.65,-29.65Q19.3,-31.1 19.1,-31.8L25.7,-55.8Q26.2,-57.6 27.55,-59.7Q28.9,-61.8 30.3,-63.2Q30.7,-63.4 32.4,-63.9Q34.1,-64.4 34.1,-65Q34.1,-65.7 33.6,-66.3Q32.6,-67.5 30.75,-69.15Q28.9,-70.8 27.8,-70.8Q23,-70.8 19.3,-61.45Q15.6,-52.1 11.5,-36Q10.2,-30.8 8.8,-26.15Q7.4,-21.5 6.4,-19.8L6.9,-19.8Q6.9,-19.2 6.5,-17.9Z"></path><path transform="translate(99 200)" d="M-1.5,-20.9Q-1.5,-15.5 -1.1,-12.35Q-0.7,-9.2 0.9,-6.3Q2.5,-3.4 6,-0.6Q8.6,1.5 11.5,1.5Q12.9,1.5 14.2,1Q15.5,0.5 16.85,-0.3Q18.2,-1.1 19,-1.6Q30.8,-7.4 30.8,-22.7L30.8,-23.8Q30.1,-23.3 29.15,-21.8Q28.2,-20.3 27.7,-19.8L24.4,-16.8Q18.3,-11.2 14.15,-8.1Q10,-5 6.3,-5L5.7,-5L5.5,-5.2Q4.2,-6.5 4.2,-10.9Q4.2,-11.5 4.3,-12Q4.4,-12.5 4.4,-12.6L4.6,-12.8Q6.8,-12.5 8.8,-14.4L20.1,-25.5Q25.1,-30.4 25.1,-37.5L25.1,-39.6Q24.6,-41.3 21.85,-44Q19.1,-46.7 17.7,-46.7L13.3,-46.7Q6.9,-46.7 3.5,-38.2Q0.1,-29.7 -1,-21.2Q-1,-20.9 -1.5,-20.9ZM11.2,-37.3Q13.8,-41.1 18.5,-41.1Q18.7,-41.1 19.05,-41.15Q19.4,-41.2 19.6,-40.7Q19.3,-36 15,-30.7Q10.7,-25.4 6,-22L5.7,-22.2L5.7,-22.8Q5.7,-23.6 6.4,-25.25Q7.1,-26.9 6.8,-27.7Q8.6,-33.5 11.2,-37.3ZM31.2,-24Q31.2,-24.2 31,-24.2Q30.8,-24.2 30.8,-24Q30.8,-23.8 31,-23.8Q31.2,-23.8 31.2,-24Z"></path><path transform="translate(133 200)" d=""></path><path transform="translate(163 200)" d="M4.25,-14.65Q4,-13.6 4,-12.9L4,-12.7Q4.5,-13.1 4.5,-13.4L4.5,0.1Q4.5,1.5 6.35,3.65Q8.2,5.8 10.5,7.8Q12.8,9.8 13.8,10.2Q14.8,9.8 14.7,8.5Q14.6,7.2 14.6,6.9Q14.6,5.6 13.9,2.9Q13.2,0.3 13.2,-0.9L13.2,-19.1L13.3,-19.2Q14,-18.6 17.9,-14.7Q19.7,-13.1 20.9,-13.1L21.4,-13.1Q23.7,-14.9 27.8,-19.8L30.7,-23.2Q32,-24.6 34,-26.4Q39.8,-32.2 43.35,-36.75Q46.9,-41.3 46.9,-44.9Q46.9,-47.2 44.4,-50.35Q41.9,-53.5 38.65,-55.85Q35.4,-58.2 33.4,-58.2Q33.4,-58.3 33.25,-58.4Q33.1,-58.5 32.9,-58.5Q32.6,-58.5 31.9,-58.15Q31.2,-57.8 30.7,-57.7Q27.6,-57.1 21.3,-54.3L18.4,-53.1Q18,-53 17.45,-52.75Q16.9,-52.5 16.6,-52.5L16.2,-52.5Q16.3,-53 16.5,-54.7Q16.7,-56.4 17.3,-57.7Q17.5,-58.2 17.95,-58.65Q18.4,-59.1 18.4,-59.9Q18.4,-61.1 16.8,-62.9Q15.2,-64.7 13.25,-66.1Q11.3,-67.5 10.1,-67.5L9.9,-67.5Q9.8,-66.6 9.25,-65.55Q8.7,-64.5 8.4,-63.7Q7.6,-61.6 7.2,-56.7Q6.9,-54.1 6.7,-52.7Q5.3,-44.6 4.9,-36.25Q4.5,-27.9 4.5,-16.4Q4.5,-15.7 4.25,-14.65ZM26.1,-46.5Q30.5,-47.4 32.8,-47.4Q32.8,-46.6 24.35,-37.25Q15.9,-27.9 13.8,-25.9L13.8,-28.1Q13.8,-40.1 15.4,-46.8L15.5,-46.8Q16.1,-46.8 17.35,-46.15Q18.6,-45.5 19.5,-45.5Q21.8,-45.5 26.1,-46.5Z"></path><path transform="translate(214 200)" d="M24.5,-38.1Q24.4,-37.3 23.55,-36.55Q22.7,-35.8 22.4,-35.4Q21.9,-35.9 21.7,-36.9Q21.5,-37.9 21.3,-38.7Q20.7,-40.1 17.5,-42.7Q14.3,-45.3 13,-44.9L12.6,-44.6Q8.2,-43.6 6.9,-43.6Q5.7,-43.6 4.3,-44L4,-44Q4,-42.3 5.75,-39.5Q7.5,-36.7 8.8,-36.7Q10.1,-36.7 11.5,-37.1Q13.2,-37.3 14,-37.3L14.3,-37.3Q14.5,-37.3 14.7,-37.15Q14.9,-37 15.1,-37L15.1,-35.9Q15.1,-30.8 14.5,-28.6L13.7,-25.3Q9.9,-10.2 8.5,-6.1L8.5,-5.6Q8.5,-4 11.2,-1.1Q13.9,1.8 15.2,1.8Q15.7,1.8 15.7,1.6Q16.1,0.6 16.5,-1Q19.7,-11.8 22.8,-20.3Q25.9,-28.8 28.4,-30.4Q28.8,-30.8 30.3,-32.55Q31.8,-34.3 32,-34.8Q32,-34.9 33.65,-36.5Q35.3,-38.1 35.9,-38.7Q36.3,-39.1 37,-39.9Q37.7,-40.7 38.35,-41.25Q39,-41.8 39.9,-41.9L39.9,-42.4Q39.9,-44.1 37.35,-46.15Q34.8,-48.2 32.9,-48.2L32.9,-47.8L33.1,-47.1L31.4,-46.5L28,-42.3Q25.6,-39.6 24.5,-38.1Z"></path><path transform="translate(250 200)" d="M5.3,-5.2Q6.7,-3 8.7,-1.4Q10.7,0.2 12.5,0.2Q14.8,0.2 16.5,-1.65Q18.2,-3.5 20.6,-6.8Q24.7,-12.5 27,-20.9Q29.3,-29.3 29.3,-37.2Q29.3,-39.4 27.7,-41.8Q26.1,-44.2 24.1,-44.2Q22.5,-44.2 20.6,-43.1Q20,-43.6 18.95,-44.2Q17.9,-44.8 17.6,-44.8Q16,-44.8 14.4,-44Q12.8,-43.2 11.6,-42Q4,-34.4 4,-14.2L4,-9.3Q3.9,-7.4 5.3,-5.2ZM23.8,-39.4Q24.9,-40.1 25.4,-40.1Q25.4,-38 25,-35.75Q24.6,-33.5 24,-31.5Q23.2,-28.6 23,-27Q19.1,-18.3 16.7,-13.8Q14.3,-9.3 10.8,-6L10.2,-5.8L9.9,-5.8Q9.8,-5.8 9.65,-6.1Q9.5,-6.4 9.5,-6.6L9.5,-10.6Q9.5,-30.9 18.2,-38.2L22.1,-38.2Q22.7,-38.7 23.8,-39.4Z"></path><path transform="translate(283 200)" d="M32,-65.85Q32.3,-65.3 32.3,-64.8Q32.3,-64.1 32.1,-63.8Q32.7,-62.6 33.8,-61.3Q35.3,-59.3 35.5,-58.7Q34.6,-57.9 33.8,-57.45Q33,-57 32.4,-56.6Q30.1,-55.4 28.6,-54.1Q25.6,-51.3 23.9,-48.15Q22.2,-45 21.4,-41Q21.3,-40.7 20.95,-39.85Q20.6,-39 20.6,-38.5L20.8,-38.2L20.6,-37.6Q20.6,-35.6 23.45,-33.25Q26.3,-30.9 28.4,-30.9Q28.8,-30.9 29.55,-31.05Q30.3,-31.2 30.8,-31.1L32.3,-32.6L32.5,-32.6Q33,-32.6 33,-32.3Q33,-28 33.2,-19.5L33.4,-6.7Q33.4,-2.4 30.8,1.5Q26.6,7.9 22.85,10.65Q19.1,13.4 12.7,13.4Q11.6,13.4 10.3,13.2Q9,13 8.4,12.8Q6.3,12.2 5,12.2L4.7,12.2Q6.8,14.9 12.4,16.35Q18,17.8 22.4,17.8Q28.6,17.8 33.35,13.25Q38.1,8.7 39.9,2.2L39.9,-2.6Q39.9,-7.3 39.6,-17Q39.3,-24.2 39.3,-31.7Q39.3,-33.1 39.4,-34Q39.5,-34.9 39.6,-35.6Q40.1,-38.2 40.1,-39.8Q40.1,-41.1 38.3,-43.15Q36.5,-45.2 34.9,-45.2L32.7,-43.4L32.3,-43.7Q32,-43.4 29.6,-40.6Q27.2,-37.8 26.2,-37.8Q25.7,-37.8 25.7,-38.2Q25.6,-40.4 25.6,-43.9Q25.6,-47.3 26.45,-49.7Q27.3,-52.1 30,-52.9L31.4,-52.9Q33.4,-52.9 37,-52.4Q40.6,-51.9 42.5,-51.9Q44.2,-51.9 45,-53.1Q45.8,-54.3 45.8,-56.1L45.8,-57.3Q45.5,-58 43.7,-60.1Q41.9,-62.2 40.05,-63.8Q38.2,-65.4 37.3,-65.2Q37.1,-65.2 36.75,-64.9Q36.4,-64.6 36,-64.6Q35.4,-64.6 34.2,-65.8Q33,-67 32.1,-67L31.7,-66.7Q31.7,-66.4 32,-65.85ZM4.4,11.95Q4.4,11.7 4.3,11.7Q4,11.7 4,11.95Q4,12.2 4.3,12.2Q4.4,12.2 4.4,11.95Z"></path><path transform="translate(333 200)" d="M-1.5,-20.9Q-1.5,-15.5 -1.1,-12.35Q-0.7,-9.2 0.9,-6.3Q2.5,-3.4 6,-0.6Q8.6,1.5 11.5,1.5Q12.9,1.5 14.2,1Q15.5,0.5 16.85,-0.3Q18.2,-1.1 19,-1.6Q30.8,-7.4 30.8,-22.7L30.8,-23.8Q30.1,-23.3 29.15,-21.8Q28.2,-20.3 27.7,-19.8L24.4,-16.8Q18.3,-11.2 14.15,-8.1Q10,-5 6.3,-5L5.7,-5L5.5,-5.2Q4.2,-6.5 4.2,-10.9Q4.2,-11.5 4.3,-12Q4.4,-12.5 4.4,-12.6L4.6,-12.8Q6.8,-12.5 8.8,-14.4L20.1,-25.5Q25.1,-30.4 25.1,-37.5L25.1,-39.6Q24.6,-41.3 21.85,-44Q19.1,-46.7 17.7,-46.7L13.3,-46.7Q6.9,-46.7 3.5,-38.2Q0.1,-29.7 -1,-21.2Q-1,-20.9 -1.5,-20.9ZM11.2,-37.3Q13.8,-41.1 18.5,-41.1Q18.7,-41.1 19.05,-41.15Q19.4,-41.2 19.6,-40.7Q19.3,-36 15,-30.7Q10.7,-25.4 6,-22L5.7,-22.2L5.7,-22.8Q5.7,-23.6 6.4,-25.25Q7.1,-26.9 6.8,-27.7Q8.6,-33.5 11.2,-37.3ZM31.2,-24Q31.2,-24.2 31,-24.2Q30.8,-24.2 30.8,-24Q30.8,-23.8 31,-23.8Q31.2,-23.8 31.2,-24Z"></path><path transform="translate(367 200)" d="M7.6,-1.2Q9.2,0.8 11.6,2.6Q13.8,4.2 15.1,4.2Q17.1,4.2 18.1,3.4Q22.3,0.5 22.8,0.2L27.9,-3.1Q31.2,-5.4 31.2,-5.7Q31.2,-7 28.3,-9.6Q25.5,-12.1 23.8,-12.1Q23.4,-12.1 22.7,-11.6Q21.9,-11.1 21.4,-11.1Q20.3,-11.1 19.5,-11.8L19.2,-11.6Q19.5,-11.2 20.2,-10.9Q20.9,-10.5 20.9,-9.6L20.9,-9.4L18.2,-7.1Q16.1,-5.2 14.1,-4.7L13.8,-6.2Q13.8,-9.5 15,-16.2L15.6,-20.1Q16.1,-24.1 16.85,-28.5Q17.6,-32.9 18.3,-34.7Q20.4,-40 23.3,-40Q23.9,-40 23.9,-39.2Q23.9,-38.7 23.4,-37.5Q22.8,-36.5 22.8,-36Q22.8,-34.9 24.7,-34.3Q26.7,-33.7 27.9,-33.7Q28.9,-33.7 29.5,-34.3Q30.1,-34.9 30.1,-35.9Q30.1,-37.7 27.9,-40.2Q26,-42.3 22.7,-44.6Q19.8,-46.5 17.6,-46.5Q12.1,-46.5 9.4,-36.3Q8.2,-31.7 7.4,-24.05Q6.6,-16.4 6.5,-11.4L6.4,-6.1L6.2,-4.7L5.9,-4.5Q5.9,-3.2 7.6,-1.2Z"></path><path transform="translate(401 200)" d="M25.4,-59.2Q26.4,-56.1 26.4,-54.6L26.4,-53.8L26,-54Q26.2,-52.7 25.05,-49.15Q23.9,-45.6 23,-44.5Q22.9,-44.2 22.6,-43.9Q22.3,-43.6 22.3,-43.4L22.4,-43.2L22.4,-42.9Q22.4,-41.5 21.3,-39.6Q20.2,-37.7 18.9,-37.7L18.8,-38.1Q18.5,-38 17.9,-37.2Q17.3,-36.4 16.7,-36.4Q16.5,-36 15.25,-35.25Q14,-34.5 13.6,-34.2Q6.4,-28.7 1.3,-26.1L1,-26.1Q0.6,-26.1 0.1,-27.35Q-0.4,-28.6 -1.1,-28.6Q-1.6,-28.6 -2.9,-27.2Q-2.7,-27.2 -2.7,-26.9L-2.7,-26.6Q-2.8,-26.4 -3,-25.95Q-3.2,-25.5 -3.3,-25.3Q-3.3,-23.5 -0.6,-21.25Q2.1,-19 4.1,-19Q6.1,-19 8.1,-20.2Q10.1,-21.4 13,-23.4Q14.7,-24.6 15.5,-25L15.9,-24.9Q16.3,-24.9 16.5,-25.4Q16.7,-25.9 17,-26L18.3,-25.8Q18.3,-22.4 18.15,-19.9Q18,-17.4 17.9,-15.8Q17.5,-9 17.5,-5.5L17.2,-5.1Q17.5,-3.7 19.25,-1.35Q21,1 23.05,2.85Q25.1,4.7 26.4,4.7Q31.3,4.7 31.3,-7.3Q31.3,-10.4 30.7,-14.3Q30.6,-15 30.35,-17.6Q30.1,-20.2 30.3,-22.5Q29.5,-21.2 29,-18.85Q28.5,-16.5 28.2,-15.5Q27.5,-13.2 24.6,-7.3L24.3,-7.1L24.1,-7.1L23.7,-8.4L23.5,-11.6L23.7,-15.8L25.2,-25.3Q25.8,-28.8 26.8,-30.55Q27.8,-32.3 29.4,-32.95Q31,-33.6 34.4,-34.5L37.6,-35.3L38.2,-35.3Q38.8,-35.3 39.85,-34.75Q40.9,-34.2 41.6,-34.2Q42.5,-34.2 43.5,-34.95Q44.5,-35.7 44.5,-36.6Q44.5,-37.6 42.5,-40Q40.5,-42.4 38.15,-44.4Q35.8,-46.4 34.8,-46.4Q34.5,-46.4 33.95,-46.05Q33.4,-45.7 32.9,-45.7Q32.6,-45.7 32.4,-46.4Q32.2,-47.1 32.2,-47.8L32.2,-48.1Q32.4,-48.8 33.2,-51.6Q34,-54.4 34,-56.8Q34,-59.3 31.75,-62Q29.5,-64.7 27.1,-64.7Q24.6,-64.7 24.6,-63.3Q24.6,-62.4 25.4,-59.2Z"></path><path transform="translate(442 200)" d=""></path><path transform="translate(472 200)" d="M9.15,-60.6Q8.1,-62.1 7.2,-62.1L6.9,-62.1Q5.8,-59.7 5,-58.6L5.3,-58.3L5.3,-58.3Q5.3,-57.5 4.8,-55.85Q4.3,-54.2 4.3,-53.5Q4.3,-51.8 6.7,-49.4L10.8,-45.3L11,-44.7Q9.2,-38.1 8.1,-31.8Q7,-25.5 5.7,-15.6L5.1,-11.3Q5.1,-10.7 4.9,-9.95Q4.7,-9.2 4.7,-8.8L4.7,-8.4Q4.7,-8.2 4.85,-8.1Q5,-8 5,-7.8Q5,-6.3 4.5,-3.4Q4,-0.8 4,0.7Q4,2.4 5.95,4.65Q7.9,6.9 9.4,6.9L9.9,6.9Q10.2,5.5 10.2,2.9Q10.2,-0 9.8,-3Q9.7,-4 9.55,-5.8Q9.4,-7.6 9.4,-9.1Q9.7,-11.5 10.4,-15L11.3,-20.8Q11.3,-21.5 11.45,-22.6Q11.6,-23.7 11.9,-24.4L12.1,-24.4L12.1,-24.4L12.7,-24.2Q13.1,-23.8 14.6,-22.2Q16.1,-20.6 17.3,-20.1L18,-19.8L18.4,-20.1Q22.6,-23.7 27.6,-26.25Q32.6,-28.8 37.1,-28.8Q37.9,-28.8 39.05,-28.05Q40.2,-27.3 41,-27.3Q41.2,-27.3 41.3,-27.5Q41.4,-27.7 41.4,-27.9Q41.4,-29.5 39.45,-31.75Q37.5,-34 35,-35.75Q32.5,-37.5 31.2,-37.5L30.1,-37.5Q29.6,-37.1 28.6,-36.7Q27.6,-36.3 26.7,-35.9Q25.3,-35.4 24.3,-34.9L22,-33.6Q17.4,-31.1 14.8,-29.2L12.7,-27.7L12.6,-27.7L12.6,-29L13.2,-31.9Q14.4,-36.5 14.8,-39.6Q15,-41.1 15.65,-43.55Q16.3,-46 16.7,-46.9Q17.4,-48.7 22.7,-51.65Q28,-54.6 30.1,-54.6Q31.5,-54.6 34.2,-53.4Q36.6,-52.1 38.4,-52.1Q39.6,-52.1 40.95,-53.1Q42.3,-54.1 42.3,-55.3Q42.3,-57 40,-59.6Q37.7,-62.2 34.85,-64Q32,-65.8 30.6,-65.5L30.3,-66Q28.9,-65.1 26,-64.6Q23.8,-64.1 22.7,-63.8Q20.8,-63.1 17.1,-60.9Q16,-60.3 13.55,-59.1Q11.1,-57.9 10.8,-57.9L10.5,-57.9Q10.2,-59.1 9.15,-60.6Z"></path><path transform="translate(518 200)" d="M5.3,-5.2Q6.7,-3 8.7,-1.4Q10.7,0.2 12.5,0.2Q14.8,0.2 16.5,-1.65Q18.2,-3.5 20.6,-6.8Q24.7,-12.5 27,-20.9Q29.3,-29.3 29.3,-37.2Q29.3,-39.4 27.7,-41.8Q26.1,-44.2 24.1,-44.2Q22.5,-44.2 20.6,-43.1Q20,-43.6 18.95,-44.2Q17.9,-44.8 17.6,-44.8Q16,-44.8 14.4,-44Q12.8,-43.2 11.6,-42Q4,-34.4 4,-14.2L4,-9.3Q3.9,-7.4 5.3,-5.2ZM23.8,-39.4Q24.9,-40.1 25.4,-40.1Q25.4,-38 25,-35.75Q24.6,-33.5 24,-31.5Q23.2,-28.6 23,-27Q19.1,-18.3 16.7,-13.8Q14.3,-9.3 10.8,-6L10.2,-5.8L9.9,-5.8Q9.8,-5.8 9.65,-6.1Q9.5,-6.4 9.5,-6.6L9.5,-10.6Q9.5,-30.9 18.2,-38.2L22.1,-38.2Q22.7,-38.7 23.8,-39.4Z"></path><path transform="translate(551 200)" d="M24.5,-38.1Q24.4,-37.3 23.55,-36.55Q22.7,-35.8 22.4,-35.4Q21.9,-35.9 21.7,-36.9Q21.5,-37.9 21.3,-38.7Q20.7,-40.1 17.5,-42.7Q14.3,-45.3 13,-44.9L12.6,-44.6Q8.2,-43.6 6.9,-43.6Q5.7,-43.6 4.3,-44L4,-44Q4,-42.3 5.75,-39.5Q7.5,-36.7 8.8,-36.7Q10.1,-36.7 11.5,-37.1Q13.2,-37.3 14,-37.3L14.3,-37.3Q14.5,-37.3 14.7,-37.15Q14.9,-37 15.1,-37L15.1,-35.9Q15.1,-30.8 14.5,-28.6L13.7,-25.3Q9.9,-10.2 8.5,-6.1L8.5,-5.6Q8.5,-4 11.2,-1.1Q13.9,1.8 15.2,1.8Q15.7,1.8 15.7,1.6Q16.1,0.6 16.5,-1Q19.7,-11.8 22.8,-20.3Q25.9,-28.8 28.4,-30.4Q28.8,-30.8 30.3,-32.55Q31.8,-34.3 32,-34.8Q32,-34.9 33.65,-36.5Q35.3,-38.1 35.9,-38.7Q36.3,-39.1 37,-39.9Q37.7,-40.7 38.35,-41.25Q39,-41.8 39.9,-41.9L39.9,-42.4Q39.9,-44.1 37.35,-46.15Q34.8,-48.2 32.9,-48.2L32.9,-47.8L33.1,-47.1L31.4,-46.5L28,-42.3Q25.6,-39.6 24.5,-38.1Z"></path><path transform="translate(587 200)" d=""></path><path transform="translate(617 200)" d="M47.1,-52.7Q45,-47.4 43.8,-45.3Q36.8,-27.9 34,-19Q33.2,-19 33.3,-23Q33.3,-23.8 33.45,-24.85Q33.6,-25.9 33.6,-26.8L33.3,-27.3L33.3,-41.8Q33.3,-46 34.3,-48.6Q34.6,-49.2 34.6,-49.4L35.1,-50.2Q35.3,-51.4 33.45,-52.95Q31.6,-54.5 30.5,-54.5L30.3,-54.5Q29.6,-53.3 29,-51.1Q28.1,-48.7 27.5,-47.7L27,-48Q26.4,-45.4 23.5,-41.5L22.1,-39.4Q18.5,-33.1 15.9,-29.3Q15.3,-29.6 15.3,-32.3Q15.3,-32.8 15.45,-33.25Q15.6,-33.7 15.6,-34.2Q15.6,-34.7 15.3,-34.9Q15.1,-39.6 15.1,-49.2Q14.1,-51.5 11.25,-54.5Q8.4,-57.5 6.4,-57.5Q5.9,-57.5 5.65,-57.4Q5.4,-57.3 5.3,-56.7L4,-52.7Q3.9,-52.4 5.05,-52.3Q6.2,-52.2 6.2,-52.1L6.4,-29.3L6.4,-27.5Q6.5,-26.6 7.2,-16.5L7.5,-16.2L7.7,-15.1L7.7,-14.9Q7.8,-14 8,-12.65Q8.2,-11.3 8.3,-10.3Q9.3,-8.3 13,-4.25Q16.7,-0.2 18.3,-0.2Q19.7,-0.2 20.25,-3.85Q20.8,-7.5 20.8,-10.5L21,-17.3Q21.4,-19 22.65,-23.65Q23.9,-28.3 25.4,-32.9Q26.9,-37.5 27.8,-38L27.9,-38Q28.1,-38 28.1,-37.1L28,-31.6Q27.9,-29.9 27.9,-26.2Q27.9,-24.3 28.1,-20Q28.5,-15.5 28.4,-11.9L28.6,-11.6Q28.7,-11.5 28.85,-10.3Q29,-9.1 29.2,-8.4Q29.8,-6.6 32.2,-3.9Q34.6,-1.2 36.2,-1.2Q37.3,-1.2 38.25,-4.05Q39.2,-6.9 39.8,-9.5Q44.1,-26.5 51.4,-44.8Q52,-45.9 52.8,-48.1Q53.6,-50.5 54.35,-51.75Q55.1,-53 56.4,-54Q56.6,-54.3 56.6,-54.5Q56.6,-56.1 53.7,-58.5Q50.8,-60.9 49,-61.1L49,-61Q49,-60.7 49.3,-60.15Q49.6,-59.6 49.6,-59.2L49.6,-58.8Q48.2,-55.9 47.1,-52.7Z"></path><path transform="translate(678 200)" d="M-1.5,-20.9Q-1.5,-15.5 -1.1,-12.35Q-0.7,-9.2 0.9,-6.3Q2.5,-3.4 6,-0.6Q8.6,1.5 11.5,1.5Q12.9,1.5 14.2,1Q15.5,0.5 16.85,-0.3Q18.2,-1.1 19,-1.6Q30.8,-7.4 30.8,-22.7L30.8,-23.8Q30.1,-23.3 29.15,-21.8Q28.2,-20.3 27.7,-19.8L24.4,-16.8Q18.3,-11.2 14.15,-8.1Q10,-5 6.3,-5L5.7,-5L5.5,-5.2Q4.2,-6.5 4.2,-10.9Q4.2,-11.5 4.3,-12Q4.4,-12.5 4.4,-12.6L4.6,-12.8Q6.8,-12.5 8.8,-14.4L20.1,-25.5Q25.1,-30.4 25.1,-37.5L25.1,-39.6Q24.6,-41.3 21.85,-44Q19.1,-46.7 17.7,-46.7L13.3,-46.7Q6.9,-46.7 3.5,-38.2Q0.1,-29.7 -1,-21.2Q-1,-20.9 -1.5,-20.9ZM11.2,-37.3Q13.8,-41.1 18.5,-41.1Q18.7,-41.1 19.05,-41.15Q19.4,-41.2 19.6,-40.7Q19.3,-36 15,-30.7Q10.7,-25.4 6,-22L5.7,-22.2L5.7,-22.8Q5.7,-23.6 6.4,-25.25Q7.1,-26.9 6.8,-27.7Q8.6,-33.5 11.2,-37.3ZM31.2,-24Q31.2,-24.2 31,-24.2Q30.8,-24.2 30.8,-24Q30.8,-23.8 31,-23.8Q31.2,-23.8 31.2,-24Z"></path><path transform="translate(712 200)" d="M16.1,-61.5Q13.3,-55.1 11.3,-48.3Q9.8,-43.4 8.8,-40.6Q8.5,-38.5 6.6,-30.4Q5.4,-26.1 4.7,-21.9Q4,-18.7 4,-15.1Q4,-14.6 4.2,-14.6L4.2,-14L4.1,-10.5Q4,-9.8 4,-7.2L4,-4.5Q5.4,-2.1 7.7,0.4Q10,2.8 11.3,2.8Q11.6,2.8 11.8,2.6L12.8,-5.1L13.2,-5.1Q14,-4.3 14.8,-3.3Q15,-3.1 15.65,-2.4Q16.3,-1.7 16.7,-1.5Q17.1,-1.3 17.5,-1.3Q28.2,-10.3 33.5,-17.7Q38.8,-25.1 38.8,-30.4Q38.8,-32.8 37.1,-35.3Q34.8,-38.7 32.9,-40.3Q30.4,-42.4 28.6,-42.4Q21.2,-42.4 12.5,-33.3L12,-33.3Q12,-34.5 12.5,-36Q12.8,-36.9 16,-43L17.4,-45.7L19.4,-50.9Q19.4,-50.7 21,-55.8Q22.4,-60 24.6,-63.3Q26.8,-66.6 29.2,-67.6L29.2,-68.1Q29.2,-69.2 27.1,-71.3Q25,-73.4 23.8,-73L23.5,-72.6L22.5,-71.6Q22.2,-71.3 21.8,-71.1Q18.4,-66.8 16.1,-61.5ZM17,-26.8Q19.4,-31 24.2,-33.7Q25.2,-34.1 26.9,-35.2Q28.4,-36.2 29.6,-36.2Q30.7,-36.5 30.7,-35.8Q30.7,-34.2 29.4,-32.5L27.8,-30.4L24.2,-26.2Q24.1,-25.7 22.4,-24Q20.3,-21.9 19.5,-21.2Q19,-21.1 17.1,-19Q15.3,-17 14.6,-17L14.2,-17Q14.2,-22 17,-26.8Z"></path></svg>