<svg  xmlns="http://www.w3.org/2000/svg" xmlns:xlink="http://www.w3.org/1999/xlink" width="953" height="200" viewBox="0 0 977 224"><path transform="translate(0 100)" d="M45.9,-76.9L46.7,-76.8Q47.9,-75.4 49.65,-74.65Q51.4,-73.9 54,-73.2Q54.6,-72.9 56.15,-72.15Q57.7,-71.4 59.1,-71Q59.9,-70.1 61.3,-68.1Q61.6,-67.4 61.6,-66Q62,-64.4 62,-63.6Q61.8,-63.1 61.5,-62.25Q61.2,-61.4 60.6,-60.9Q60.5,-60.3 60.15,-59.5Q59.8,-58.7 59.6,-58.2Q62.9,-58.5 66.4,-59.1Q67.6,-58.7 68.2,-58.6Q69.6,-59 72.2,-59.4Q73.1,-59.6 74.55,-60.05Q76,-60.5 76.9,-60.5Q78.2,-60.5 78.9,-59.9Q80.8,-57.8 81.3,-56.8Q81.7,-55.6 81.65,-54.05Q81.6,-52.5 81.6,-52Q81.3,-50.3 79.8,-47.9Q79,-47 77.85,-46Q76.7,-45 76.2,-44.5Q75.7,-44.1 74.8,-43.6Q73.9,-43.1 73.5,-42.6Q72.6,-42 70.4,-41.4Q70.2,-41.3 69.7,-40.8Q69.2,-40.3 69.05,-39.9Q68.9,-39.5 69.3,-39.1Q69.8,-39 69.8,-38.7Q69.8,-38.6 69.75,-38.25Q69.7,-37.9 70,-37.6Q70.1,-37.6 70.75,-37.5Q71.4,-37.4 71.7,-36.9Q72,-35.6 71.9,-34.6Q71.6,-34.1 70.9,-33.6Q70.2,-33.1 69.8,-32.8Q68.9,-31.7 66.5,-30.5Q65,-29.8 63.9,-29L61.9,-28.1Q58.7,-26.5 56.9,-26.1Q57.2,-18.5 57.2,-10.7Q57.2,-4.1 56.9,2.7Q56.5,4.3 56.1,7.7Q55.9,8.4 55.6,9.9Q55.3,11.4 54.7,12.3Q54.1,12.8 53.85,13.55Q53.6,14.3 53.5,14.5Q53.3,14.6 52.75,15.05Q52.2,15.5 51.8,15.2Q51.3,14.4 50.5,12.6Q49.5,9.8 47.9,4.2Q47.7,3.4 47.2,1.3Q46.7,-0.8 46.6,-2.4Q46.8,-2.9 46.9,-3.45Q47,-4 47.1,-4.5Q47.3,-5.8 47.6,-6.6Q47.9,-7.4 48.6,-8Q48.9,-9.8 48.9,-13.3Q48.9,-15.4 48.7,-19.6L48.6,-22.7Q47.4,-22.5 46,-21.85Q44.6,-21.2 44,-21Q42.9,-20.5 40.7,-18.8Q39,-17.4 38.05,-16.8Q37.1,-16.2 36.2,-16.2Q34.9,-16.2 34.1,-17.7Q34,-17.9 33.85,-18.35Q33.7,-18.8 33.3,-19Q32.7,-19.7 33,-20.7Q33.5,-21.4 33.8,-22.6L33.8,-22.7Q33.8,-23 33.45,-23.35Q33.1,-23.7 32.9,-24Q33.9,-25.5 35.2,-26.75Q36.5,-28 37.85,-29.1Q39.2,-30.2 39.8,-30.7Q43.8,-33.3 48.3,-36.7L48.2,-40.9Q48,-43.5 47.8,-45L44.6,-43.5Q43.7,-43 42.25,-41.95Q40.8,-40.9 39.6,-40.8Q39,-41 37.65,-41.3Q36.3,-41.6 35.4,-42.1Q34.6,-42.8 32.6,-45.2Q32.2,-45.8 31.5,-46.8Q30.8,-47.8 30.2,-48.5Q29.2,-49.3 29.2,-50.1Q29.2,-50.8 30.3,-50.7Q31.2,-50.3 32.3,-50.3Q33.7,-50.3 36.8,-51.4Q40.8,-52.6 42.6,-53.5Q45.8,-54.5 47.5,-54.9L47.4,-59.1Q47.3,-59.9 47.1,-61.6Q46.9,-63.3 46.4,-64.5Q46.5,-65.9 45.6,-68.3L45,-70.6Q44.2,-72.2 44.2,-74.4Q44.4,-74.7 44.5,-75.35Q44.6,-76 44.8,-76.4Q45,-76.8 45.5,-76.9L45.9,-76.9ZM19.1,-52.6L19.4,-52.4Q19.9,-52.4 21.1,-52.8Q22.3,-52.6 23.9,-51.2Q26.3,-48.2 26.4,-45Q26.4,-43.1 25.7,-41.7Q25.3,-41.3 24.65,-40.95Q24,-40.6 23.6,-40.3Q23.4,-39 23.2,-36.8Q23.2,-34.3 23.4,-33Q23.5,-32.9 23.75,-32.3Q24,-31.7 24.6,-31.6Q25.7,-32.1 26.8,-33.1Q27.9,-34.1 28.3,-34.4Q28.4,-34.5 29.7,-36.3Q31.2,-38.9 32.8,-39.4Q32.6,-37.5 31.85,-35.15Q31.1,-32.8 30.9,-32Q30.3,-30.5 29.4,-29.3Q28.5,-28.1 27.5,-26.95Q26.5,-25.8 26.1,-25.3Q25.4,-24.8 24.2,-23.8Q23,-22.8 21.9,-22.3Q20.9,-22.9 20.25,-23.9Q19.6,-24.9 19.1,-26Q18.6,-27.1 18.4,-27.6Q18.2,-28.4 17.9,-29.95Q17.6,-31.5 16.9,-32.4L16.3,-36Q15.5,-40.8 15.4,-43.1Q15.5,-44.3 15,-46.4Q14.6,-48.4 14.6,-49.2Q14.6,-51.2 16.4,-51.3Q16.7,-52.1 17.3,-52.55Q17.9,-53 18.6,-52.8L19.1,-52.6ZM63.8,-51.4Q60.2,-50.6 58.5,-49.9Q58.1,-49.4 57.7,-47.7Q57.8,-47.3 57.65,-46.5Q57.5,-45.7 57.5,-45.1Q57.5,-43.9 58.5,-44.1Q60.2,-45.4 62.1,-46.6Q62.6,-46.9 64.1,-47.9Q65.6,-48.9 66.35,-49.55Q67.1,-50.2 67.1,-50.5Q67.1,-50.9 65.8,-50.8Q65.6,-50.9 65.1,-51.1Q64.6,-51.3 64.2,-51.4L63.8,-51.4ZM32.1,-42.5Q32.2,-42.4 32.15,-42.3Q32.1,-42.2 32,-42.2Q31.9,-42.2 32,-42.4L32.1,-42.5ZM29.1,-26.8Q28.7,-26.3 27.7,-25.5Q28.6,-26.6 28.9,-26.8L29.1,-26.8ZM25.1,-23.2Q24.9,-23 24.6,-22.5Q24.3,-22 23.9,-21.9Q23.9,-21.9 23.85,-21.95Q23.8,-22 23.8,-22Q23.8,-22.1 24.4,-22.7L25.1,-23.2Z"></path><path transform="translate(100 100)" d="M39.3,-70.4L40.2,-70.3Q40.8,-70.3 41.35,-70.4Q41.9,-70.5 42.6,-70.5Q43.7,-70.3 45.9,-69.7L48.5,-69.1Q49.3,-68.8 50.9,-68Q51.4,-67.9 52.2,-67.65Q53,-67.4 53.5,-67.5Q54.6,-67.2 54.9,-66Q55.6,-65.3 55.7,-64.6Q55.9,-63.9 56.45,-63.25Q57,-62.6 57.2,-62.3Q57.2,-61.2 57.5,-60Q57.8,-57.9 57.7,-57.4Q57.6,-57.2 57.6,-56.7Q57.6,-56.3 57.75,-55.75Q57.9,-55.2 57.8,-54.7Q57.4,-54.5 57.25,-54Q57.1,-53.5 57,-53.4Q56.6,-52.9 56.6,-52.5Q56.6,-52.1 56.85,-52.1Q57.1,-52.1 57.3,-52.7Q57.8,-53 58.75,-53.45Q59.7,-53.9 60.2,-54.4Q60.5,-54.5 61,-54.7Q61.5,-54.9 61.7,-55.3Q62.9,-55.7 63.4,-56.1Q63.9,-56.2 64.5,-56.45Q65.1,-56.7 65.4,-56.7Q65.9,-56.7 66.2,-56.4Q66.5,-55.7 67.35,-55.6Q68.2,-55.5 68.3,-55.5Q68.5,-55.1 68.5,-55Q68.5,-54.3 67.7,-53.5Q68.3,-53.2 68.7,-52.2Q69.1,-51.2 69.4,-50.9Q69,-49.5 68.05,-48.1Q67.1,-46.7 66.9,-46.5Q66.4,-46 65.4,-45.8Q64.4,-45.6 63.8,-45.4Q63,-44.8 61,-44.4Q59.6,-44.2 58.6,-43.8Q56.9,-42.7 56.15,-42.05Q55.4,-41.4 56,-40.4Q56.3,-40.3 57.15,-40.05Q58,-39.8 58.5,-39.4Q58.4,-39.2 58.4,-38.9Q58.4,-38.3 59,-37.5Q59.3,-36.8 59.4,-35.95Q59.5,-35.1 59.5,-34.8Q59.6,-34.5 59.85,-34Q60.1,-33.5 60.1,-33.15Q60.1,-32.8 59.8,-32.6Q59.6,-32 59.6,-30.8Q59.9,-29.6 59.9,-29.4Q59.9,-29.2 59.7,-28.6Q59.6,-28.1 59.5,-26.75Q59.4,-25.4 58.8,-24.6Q58.6,-23.3 58.2,-22.8Q58.1,-22.3 57.75,-21.55Q57.4,-20.8 57.2,-20.1Q57,-19.4 57.2,-18.8L59.2,-17.5Q59.8,-17.5 60.5,-16.7Q61.2,-15.9 61.8,-15.9Q62.9,-14.8 63.6,-14.5Q64.3,-13.9 65.3,-13.6Q65.8,-13.2 66.95,-12.15Q68.1,-11.1 69.3,-10.9Q69.7,-10.5 71.1,-9.8Q72.1,-9.1 73.65,-8.35Q75.2,-7.6 76,-7.2Q77.7,-6.8 81.2,-4.9L83.5,-3.7Q84,-3.5 84.8,-3.15Q85.6,-2.8 86.2,-2.7Q86.6,-2.4 87.25,-1.75Q87.9,-1.1 88.6,-1Q89.2,-0.7 89.5,0.15Q89.8,1 90.4,1Q90.7,1.2 91.6,1.25Q92.5,1.3 92.9,1.7Q94.6,2.2 98,2.2Q99.7,2.2 100.6,2.3Q100.8,2.3 101.4,2.4Q102,2.5 101.5,2.7Q99.2,2.8 96.5,3.2Q93.8,3.6 93,3.7Q92.4,4 91.3,4.45Q90.2,4.9 89.5,5.5Q88.7,5.7 86.95,6.1Q85.2,6.5 83.8,6.6Q81.5,7.3 77.7,7.3Q77,7.3 75.9,7.25Q74.8,7.2 73.3,7.3Q72.8,7.2 72,6.9Q71.2,6.6 70.7,7Q70.2,7.2 69.3,7.2Q67.8,7.2 66.2,6.35Q64.6,5.5 64.2,5.3Q63.8,5 63.1,4.4Q62.4,3.8 61.7,3.5Q61,2.9 59.55,1.9Q58.1,0.9 57.5,-0.2Q55.3,-1.9 52.4,-5.2Q52.4,-5.2 50.1,-7.5Q49.4,-7 48.4,-5.6Q48.1,-5.4 47.6,-4.95Q47.1,-4.5 46.9,-4.1Q45.7,-3.1 45,-2.7Q44.3,-2.1 43.6,-1.55Q42.9,-1 42.3,-0.5Q41.6,-0.2 39.35,0.75Q37.1,1.7 35.1,2.2Q34.1,2.8 32.75,3Q31.4,3.2 30.8,3.3L26.9,3.4Q25.1,3.4 24.3,3.2Q23.2,2.7 21.7,2.6Q20.2,2.5 19.6,2.4Q18.7,2.3 17,2.2Q15.3,2.1 14.1,1.8L14.1,1.7Q14.7,1.4 15.3,1.4L16.6,1.5Q18,1.5 21,1.1Q22.1,0.6 22.9,0.1Q24.3,-0.7 25.1,-1Q26.1,-1.9 26.9,-2.9Q27.6,-3.4 28.75,-4.3Q29.9,-5.2 30.9,-5.6Q31.7,-6.6 32.4,-6.8L39.3,-13.4Q39.6,-13.7 40.1,-14.35Q40.6,-15 41.1,-15.2L40.3,-15.9Q37.6,-17.8 32,-21Q31.5,-21.6 30.35,-22Q29.2,-22.4 28.8,-22.6Q27.6,-23.1 25.95,-23.15Q24.3,-23.2 23.7,-23.2Q23.3,-23.2 21.95,-23.15Q20.6,-23.1 20.05,-22.75Q19.5,-22.4 20.1,-21.6Q20.4,-21.4 21.4,-21Q22.4,-20.6 22.8,-20.25Q23.2,-19.9 23,-19.5Q20.2,-20.7 18.7,-21.1Q18.6,-21.2 18.1,-21.45Q17.6,-21.7 17.4,-22.1Q17.4,-22.3 17.2,-22.95Q17,-23.6 17.3,-24Q18,-24.3 19.1,-25.2Q19.9,-25.9 20.8,-26.3Q21.4,-26.5 21.9,-26.7Q22.4,-26.9 23,-27.1Q24.3,-27.3 25.9,-27.4Q27.5,-27.5 28.2,-27.5Q29.7,-28 32,-28Q34.2,-28 38.6,-27.2Q39.2,-27 39.7,-26.8Q40.2,-26.6 40.8,-26.4Q41.2,-26.3 42.25,-26.05Q43.3,-25.8 44,-25.3Q44.6,-25.1 45.6,-24.65Q46.6,-24.2 47.2,-24.3Q47.8,-26.4 49.1,-28Q49.2,-28.5 49.6,-29.25Q50,-30 50.1,-30.4Q50.5,-31.3 50.5,-32.4Q50.5,-33.5 50.5,-33.7Q50.5,-34 50.55,-34.55Q50.6,-35.1 50.7,-35.4Q50.8,-35.7 51.2,-35.7Q51.3,-35.8 51.3,-36Q51.3,-36.2 50.95,-36.55Q50.6,-36.9 50.5,-37.2L50.4,-37.5Q50.4,-37.7 50.65,-38.05Q50.9,-38.4 51,-38.5Q51.4,-38.9 52.25,-39.3Q53.1,-39.7 53.4,-40.1Q54,-41.3 55.4,-42.7Q55.7,-43.3 55.7,-43.9Q55.7,-44.3 55.3,-44.6L54.2,-44.7Q53.6,-44.7 53.2,-44.3Q52.3,-44.1 50.55,-43.8Q48.8,-43.5 47.7,-42.8Q47.2,-42.7 46.15,-42.65Q45.1,-42.6 44.6,-42Q44,-41.8 43.05,-41.6Q42.1,-41.4 41.5,-41.2Q40.8,-41 39.45,-40.6Q38.1,-40.2 37.2,-39.6Q36.3,-39.7 35.25,-39.15Q34.2,-38.6 33.6,-38.4Q32,-38 31.1,-37.6Q30.7,-37.5 29.85,-37.1Q29,-36.7 28.3,-36.8Q26.3,-36 25.3,-35.7Q21.7,-34.4 20.5,-33.7Q18.4,-32.8 14,-31.4Q12.8,-30.8 12.2,-30.8Q11.5,-31 11,-31.25Q10.5,-31.5 10.1,-31.7Q9.9,-32.5 9.9,-33.5Q9.9,-34.5 9.9,-34.8Q10.4,-35.3 11.2,-36.35Q12,-37.4 13,-37.7Q13.7,-38.2 15.3,-39.5Q16.2,-39.9 16.95,-40.6Q17.7,-41.3 18,-41.6Q18.3,-41.8 18.9,-42.35Q19.5,-42.9 20.1,-43Q20.5,-43.5 21.8,-44.2Q22.7,-44.8 24,-45.4Q25.7,-46.3 26.2,-46.6Q26.4,-46.6 26.8,-46.7Q27.2,-46.8 27.35,-46.75Q27.5,-46.7 27.2,-46.4Q26.7,-46.1 25.65,-45.1Q24.6,-44.1 23.8,-43.7Q23.7,-43.2 23.1,-42.9Q22.5,-42.6 22.3,-42.4Q22.1,-42.2 21.95,-41.7Q21.8,-41.2 21.3,-41L21.3,-40.8Q21.3,-40.5 21.05,-40.05Q20.8,-39.6 20.75,-39.25Q20.7,-38.9 21.1,-38.8Q21.4,-38.9 22.05,-39Q22.7,-39.1 23.1,-39.6Q23.6,-39.9 24.7,-40.1Q25.1,-40.5 25.65,-40.6Q26.2,-40.7 26.5,-40.8Q27,-41.3 27.95,-41.6Q28.9,-41.9 29.4,-42.2Q30,-42.4 30.7,-42.45Q31.4,-42.5 32,-42.7Q32.6,-42.9 33,-43.4L44.5,-47.3Q45,-47.5 45.9,-48Q46.8,-48.5 47.7,-48.6Q49.3,-49.2 50.1,-49.4Q50.5,-49.6 50.45,-49.9Q50.4,-50.2 50.2,-50.2Q50,-50.2 50.1,-49.7Q49.3,-49.8 49.05,-50.15Q48.8,-50.5 48.5,-51.3L48.1,-51.4Q47.7,-51.4 47,-50.9Q46.7,-51 46.7,-51.4Q46.7,-51.5 46.7,-51.8Q46.7,-52.1 46.3,-52.2Q45.6,-52.3 44.4,-52.9Q43.9,-53 42.95,-53.15Q42,-53.3 41.65,-53.5Q41.3,-53.7 41.8,-54.2Q42.1,-54.3 42.75,-54.7Q43.4,-55.1 43.8,-55.5Q44.3,-55.6 44.65,-56.1Q45,-56.6 45.5,-56.7Q45.9,-57.3 46,-58.25Q46.1,-59.2 46.2,-59.7Q46.4,-59.9 46.85,-60.25Q47.3,-60.6 47.45,-60.95Q47.6,-61.3 47.5,-61.7Q47.2,-62.1 46.65,-62.95Q46.1,-63.8 45.3,-64.1Q45.2,-64.6 44.65,-65Q44.1,-65.4 43.6,-65.7Q43.4,-66.2 42.8,-66.5Q42.2,-66.8 41.9,-67Q41.6,-67.3 40.9,-67.7Q40.2,-68.1 39.9,-68.4Q39.4,-68.5 38.8,-69.05Q38.2,-69.6 38.1,-70.05Q38,-70.5 38.7,-70.5L39.3,-70.4ZM42.1,-70Q41.9,-70.1 41.9,-70Q41.9,-69.9 42.05,-69.85Q42.2,-69.8 42.4,-69.9L42.1,-70Z"></path><path transform="translate(200 100)" d="M70.1,-63.5L72.2,-63.1Q73.2,-62.8 75,-61.8Q75.5,-61.4 76.5,-60.8Q77.8,-60.4 79.4,-59.2Q79.5,-58.8 79.85,-58.15Q80.2,-57.5 80.3,-57.1Q80.9,-56.6 81.4,-55.6Q81.9,-54.6 82.3,-54.1Q82.6,-53.4 82.9,-52.75Q83.2,-52.1 83.4,-51.5Q83.9,-50.1 84.4,-48.9Q84.6,-48.3 84.7,-47.45Q84.8,-46.6 84.8,-46.3Q85.6,-44.8 85.85,-42.95Q86.1,-41.1 86.2,-40.7Q86.2,-40.3 86.3,-39.5Q86.4,-38.7 86.5,-38.2Q86.6,-37.5 86.6,-36.25Q86.6,-35 87.1,-34.2Q87.7,-27.2 87.7,-20.1Q87.7,-14.2 87.5,-11.2Q87.1,-6 86.5,-2.55Q85.9,0.9 84.4,4.1Q84.1,4.5 83.65,5.35Q83.2,6.2 82.7,6.75Q82.2,7.3 81.5,7.4Q81.1,7.4 80.3,7.45Q79.5,7.5 79,7.4L76.7,6.4Q74,5 71.7,4.4Q70.9,4 69.7,3.6Q68.5,3.2 67.65,2.75Q66.8,2.3 66.4,1.4Q65.9,1.3 65.25,0.9Q64.6,0.5 64,0.3Q63.4,-0.1 62,-1.2Q61.7,-1.4 59.5,-2.7Q56.7,-4.5 54.8,-5Q55.3,-5 56.55,-5.05Q57.8,-5.1 58.6,-5.6Q59.3,-5.8 62.2,-6.45Q65.1,-7.1 67.7,-7.4Q68.9,-8 70.7,-8.05Q72.5,-8.1 73.3,-8.2Q74.8,-8.5 75.7,-9.6Q76,-10.5 77,-12.1Q77.4,-14.3 77.8,-15.2Q77.8,-15.6 77.95,-16.15Q78.1,-16.7 78.1,-17.1Q78.1,-17.5 77.7,-17.1Q77.3,-16.4 77.15,-15.45Q77,-14.5 76.9,-14.2Q76.5,-13.4 75.75,-12.8Q75,-12.2 74.2,-12.2Q73.9,-12.2 73.3,-12.4Q71.7,-13.2 71.7,-14.2Q70,-15.5 68,-18.1Q67.6,-18.5 66.5,-19.75Q65.4,-21 64.2,-21.9Q63.6,-20.9 61.3,-18.1Q59.1,-16 57.15,-14.8Q55.2,-13.6 53,-13.6Q52.1,-13.9 51.3,-13.9Q50.5,-13.9 49.1,-13.7Q48.4,-13.7 48.15,-14Q47.9,-14.3 48.4,-14.7Q48.8,-14.8 49.65,-15.35Q50.5,-15.9 51.1,-16Q51.5,-16.5 52.3,-17.35Q53.1,-18.2 53.4,-19Q54.4,-20 54.8,-20.6Q54.8,-21.3 55.15,-21.8Q55.5,-22.3 55.9,-22.7Q56.3,-23.1 56.5,-23.3Q56.6,-23.7 57.05,-24.1Q57.5,-24.5 57.6,-24.8Q57.7,-24.9 58.2,-25.25Q58.7,-25.6 58.8,-26.2Q58.3,-27.2 57.2,-27.95Q56.1,-28.7 55.8,-28.9Q55,-29.2 53.4,-30Q51.6,-31 50.6,-31.3Q50.3,-31.3 49.65,-31.2Q49,-31.1 48.65,-31.2Q48.3,-31.3 48.5,-31.7Q48.7,-31.9 49.15,-32.2Q49.6,-32.5 50,-32.6Q51.5,-33.1 51.9,-33.1Q52.6,-33.1 53,-32.7Q54.6,-32.3 55.4,-32.4Q54.8,-32.6 54.65,-32.85Q54.5,-33.1 55.2,-33Q56.8,-32.8 59.8,-32L61.9,-31.5Q62.9,-34 63.7,-36.6Q63.8,-37.1 64.1,-38.15Q64.4,-39.2 64.3,-40Q64,-41 63.7,-41.55Q63.4,-42.1 62.7,-42.2L61.8,-42.2Q60.2,-42.2 60.9,-43Q61.4,-43.3 61.9,-44.05Q62.4,-44.8 62.8,-45.1Q63.3,-45.1 64.3,-45.5Q65.3,-45.9 65.8,-45.9Q66.3,-45.9 66.6,-45.7Q68.7,-44.1 69.6,-41.4Q69.8,-40.4 69.75,-39.05Q69.7,-37.7 69.7,-37.2Q69.5,-34.9 68.75,-32.45Q68,-30 67.8,-29.4Q70.9,-28.6 74.3,-27.1Q75,-26.2 76.8,-24.8L76.7,-23Q76.7,-21.7 77.2,-20.8Q77.3,-20.4 77.4,-19.9Q77.5,-19.4 77.65,-19.05Q77.8,-18.7 78.1,-18.8Q78.1,-26.1 77.7,-32L77,-36.5Q76.2,-40.5 75.8,-44.4Q75.1,-48.1 73.3,-50.3Q72.6,-51.6 71.45,-52.75Q70.3,-53.9 70.1,-54.1Q69.2,-54.9 68.4,-55.8Q67.8,-56.2 67.05,-56.85Q66.3,-57.5 65.6,-57.7L64.6,-57.8Q63.6,-57.8 62.85,-57.7Q62.1,-57.6 61.5,-57.5Q59.4,-56.9 55.2,-56.1Q52.2,-55.6 50.2,-55.1L47.7,-54.6Q46.9,-54.5 43,-54Q39.1,-53.5 35.6,-53.5Q32,-53.5 29.5,-54Q28.1,-54.8 27.6,-55.4Q27.3,-56 27.3,-56.3Q27.3,-56.5 27.5,-56.5Q28.1,-56.5 29.2,-55.7Q30.1,-55.4 31.25,-55.35Q32.4,-55.3 32.9,-55.3Q33.6,-55.4 35.45,-55.5Q37.3,-55.6 38.7,-56.3Q39.8,-56.4 41.25,-56.85Q42.7,-57.3 43.5,-57.5Q49.3,-59.5 59.5,-61.4Q60.3,-61.6 62.65,-62.2Q65,-62.8 67,-63Q68.6,-63.6 69.4,-63.6L70.1,-63.5ZM37.7,-55.3Q37.4,-55.2 37.65,-55.15Q37.9,-55.1 38.1,-55.2L38,-55.3L37.7,-55.3ZM24.4,-53.5Q24.6,-53.4 25.15,-53.3Q25.7,-53.2 26,-52.8Q26,-52.2 25.6,-51.2Q25.8,-50.7 26.25,-49.75Q26.7,-48.8 26.6,-48Q26.4,-47.3 25.4,-44.2Q23.9,-40.6 23.9,-38.3Q23.6,-37.6 23.45,-36.6Q23.3,-35.6 23.2,-35.2Q22.6,-30.8 22.3,-26.1Q22.3,-25.9 22.5,-25.35Q22.7,-24.8 23.2,-24.6Q23.9,-24.9 24.9,-26.1Q25.9,-27.3 26.6,-27.6Q24.3,-22.6 23.6,-18.1Q23.4,-16.4 23.3,-14.25Q23.2,-12.1 23.2,-11.2Q23.1,-10.8 22.95,-9.35Q22.8,-7.9 22.4,-6.7Q21.5,-3.4 20.1,-1.8Q20.1,-1.7 19.75,-1.05Q19.4,-0.4 18.8,-0.5L16.5,-2.6L16.5,-2.8Q16.5,-3.3 16.15,-3.8Q15.8,-4.3 15.6,-4.5Q14.9,-5 14.65,-5.9Q14.4,-6.8 14.3,-7Q14.2,-7.7 14.1,-9.25Q14,-10.8 13.5,-11.9Q13.5,-12.7 13.6,-13.55Q13.7,-14.4 13.7,-15.1Q13.7,-16.1 13.4,-17Q13.3,-17.9 13.65,-19.25Q14,-20.6 14.1,-21.4Q14.1,-24.1 14.4,-26.6Q14.8,-29.6 15.1,-31.1Q16.5,-40.9 17.8,-45.7L17.8,-45.8Q17.8,-46.6 17.1,-47.25Q16.4,-47.9 16.2,-48.1Q16.2,-49.5 15.9,-50.1L18.4,-51.5Q21.4,-54.1 23.8,-53.8L24.4,-53.5ZM45.5,-41.5L46.1,-40.8Q46.5,-40.3 46.65,-39.35Q46.8,-38.4 47,-38Q47,-35.9 46.3,-33.5Q45.6,-31.1 45.3,-30.2L45.3,-29.5Q45.3,-28 46.3,-28.5Q46.7,-28.6 47.55,-29.3Q48.4,-30 48.9,-30.15Q49.4,-30.3 49.5,-29.6L49.5,-27.9Q49.5,-26.1 49.3,-25.3Q48.9,-24.9 48.9,-24.3Q48.9,-23.6 49.4,-22.9L49.4,-22.8Q49.4,-22.5 49.05,-22.25Q48.7,-22 48.6,-21.9Q48.5,-21.2 47.8,-20.75Q47.1,-20.3 46.7,-20Q46.6,-19.9 46.3,-19.9Q45.8,-19.9 45.2,-20.3Q44.6,-20.7 44.2,-20.9Q43,-21.3 42.4,-21.3Q41.3,-20.6 40.6,-19.6Q39.9,-18.6 39,-16.9Q37.7,-14.4 37,-13.7Q35.5,-12.1 34.3,-11.5Q33.1,-11.1 32.5,-11.1Q31.6,-11.1 31.3,-12Q30.4,-12.6 29.9,-13.45Q29.4,-14.3 29.8,-15.1Q28.9,-16.2 28.9,-17.3Q28.9,-17.8 29,-18.1Q28.7,-19.9 28.7,-21.7Q29.1,-23.7 29.1,-24.7Q29.1,-25.8 28.6,-27Q28.2,-27.4 27.9,-28Q27.6,-28.6 27.4,-28.9Q27.8,-29.2 27.85,-29.85Q27.9,-30.5 28.4,-30.9Q28.7,-31 29.6,-31.35Q30.5,-31.7 31.3,-31.6Q34.1,-31.2 35.5,-30.9Q35.8,-30.5 36.3,-30.5Q36.6,-30.5 37,-30.6Q37.4,-30.7 37.7,-30.6Q39.1,-31.2 39.8,-32.45Q40.5,-33.7 41.3,-36.1L39.6,-36.9L38.2,-36.8Q35,-36.8 36.4,-38Q36.6,-38.1 37.15,-38.45Q37.7,-38.8 37.9,-39.3Q38.7,-39.7 39.55,-40.4Q40.4,-41.1 40.8,-41.5Q41.8,-42.2 43.3,-42.2Q44.3,-42.2 45.3,-41.9L45.5,-41.5ZM32.2,-24.4Q32.2,-24.3 32.4,-23.6Q32.6,-22.9 33.2,-22.5Q33.5,-22.3 34.1,-22.3Q34.8,-22.3 35.15,-22.7Q35.5,-23.1 34.9,-23.7Q34,-24.5 33.35,-24.85Q32.7,-25.2 32.1,-24.7L32.2,-24.4Z"></path><path transform="translate(300 100)" d="M39.5,-69Q40.2,-68.9 41.4,-69Q42.6,-69.1 43.4,-69.1Q45.2,-69.1 46.3,-68.3Q47,-68.5 48.2,-67.95Q49.4,-67.4 50,-67.4Q50.2,-66.9 50.7,-66.65Q51.2,-66.4 51.9,-66.2Q52.6,-66 52.9,-65.8Q54.6,-65.4 55.6,-64.35Q56.6,-63.3 57.35,-62.1Q58.1,-60.9 58.4,-60.5L58.3,-59.2Q58.3,-58.5 58.7,-58Q58.9,-57.3 58.9,-55.9L59,-55.8Q60.1,-56 62.3,-56.6Q66.7,-57.6 68.9,-57.9Q71.1,-58.5 74.7,-60.6Q77,-61.6 78.3,-61.3Q79.9,-60.9 80.6,-60.6Q80.9,-60.1 81.3,-59.55Q81.7,-59 82.2,-58.8Q82.5,-58.2 82.55,-57.25Q82.6,-56.3 82.6,-55.9Q83,-54.8 83,-53.4Q83,-52.3 82.9,-51.45Q82.8,-50.6 82.7,-50Q82.5,-49.2 81.7,-47.8Q81.7,-47.6 81.6,-47.05Q81.5,-46.5 81.3,-46.1Q80.8,-45.6 79.7,-44.6Q79.2,-43.7 78.8,-43.3Q78.4,-42.9 77.7,-42.9Q77.5,-43 77,-43.4Q76.5,-43.8 76.1,-43.7Q75.6,-43.4 75.2,-43.3Q74.8,-43.2 74.6,-43.1Q72.4,-42.7 71.4,-42.3Q70.9,-42.4 70.15,-42.35Q69.4,-42.3 69,-42.3Q67.2,-42.3 66.7,-43.1Q66.5,-42.8 66.5,-42.2Q66.5,-41.5 66.6,-41.1Q66.5,-39.5 66.1,-37.7Q65.7,-35.9 65.6,-35.2Q65.1,-34.6 64.65,-33.75Q64.2,-32.9 64,-32.5Q62.9,-30.8 61.25,-29.05Q59.6,-27.3 57.9,-25.7Q60.2,-23.4 61.3,-21.1Q61.4,-20.9 61.55,-20.35Q61.7,-19.8 62,-19.5L64.7,-19.7Q64.9,-19.7 65.4,-19.8Q65.9,-19.9 66.1,-20.2L67.3,-20.2Q68.1,-20.2 68.4,-20.4Q70,-20.7 71.2,-20.8Q72.4,-20.9 73.2,-21Q73.4,-21.1 74.4,-21.4Q75.4,-21.7 76.3,-21.6Q77.9,-21.9 80.4,-22.9Q82.3,-23.7 84.1,-24.1Q85,-24.2 85.7,-23.65Q86.4,-23.1 87.3,-21.9Q88.2,-19.7 88.8,-17.05Q89.4,-14.4 89.5,-13.8Q89.8,-11.4 87.4,-10.6Q83.7,-9.5 78.3,-9.5L74.8,-9.6Q74.4,-9.8 73,-10Q71.6,-10.2 71.1,-10.45Q70.6,-10.7 71.2,-11.4Q71.5,-11.5 72.1,-11.6Q72.7,-11.7 73,-12.1Q72.2,-12.5 71.9,-12.9Q71.6,-13.3 71.9,-13.8Q71.2,-13.8 68.5,-13.7Q65.8,-13.6 63.5,-13.2Q63.2,-11.1 63.2,-8.8Q63,-6 62.8,-4.4Q62.1,-0.3 61.6,2.05Q61.1,4.4 59.8,6.6Q59.6,7.5 58.95,8.35Q58.3,9.2 57.6,9.9Q52.6,10.4 48.7,10.4Q48.4,10.3 47.35,10Q46.3,9.7 45.5,9.2Q44.7,8.7 44.3,8Q43.3,7.6 42.4,6.7Q41.5,5.8 41.1,5.4Q40.3,5 39.9,4Q39.5,3 39.2,2.5Q39.1,1.6 37.9,0.8Q37.4,0.3 36.2,-0.75Q35,-1.8 35,-2Q35,-2.2 35.35,-2.05Q35.7,-1.9 35.8,-1.9Q37.2,-0.8 38.2,-0.4Q39.4,-0.1 40.7,-0.1Q42.4,-0.1 44,-0.4Q46,-0.6 47.2,-0.6Q49.6,-0.7 52.3,-1.1Q52.9,-1.7 53.55,-2.7Q54.2,-3.7 54.5,-4.1Q54.8,-4.7 55.2,-5.6Q55.6,-6.5 55.8,-7.1Q56,-9 56.2,-12.4Q54.9,-12.4 53.8,-12Q52.7,-12.1 50.5,-11.7Q48.9,-11.3 48,-11.3Q45.7,-10.8 39.7,-9.9L37.4,-9.6Q36.3,-9.2 34.75,-9.1Q33.2,-9 32.5,-8.9Q25.5,-8.5 21.9,-8.5Q21.3,-8.6 19.85,-8.75Q18.4,-8.9 17.5,-9.2Q16.6,-9.5 16.2,-10.4L16.1,-12.5Q16.1,-13 16.3,-14.6Q16.7,-15 17.8,-15.2Q18,-15.2 18.45,-15.1Q18.9,-15 19.2,-14.9Q19.5,-14.4 19.7,-13L27.1,-13.4Q27.8,-13.5 29.2,-13.9Q36.3,-14.6 47.5,-16.8Q49.7,-17.3 54.3,-18.1L53.2,-19.2Q53.3,-19.1 51.6,-20.5Q51.3,-20.7 50.2,-21.65Q49.1,-22.6 47.8,-22.9Q47.5,-23.4 46.85,-23.7Q46.2,-24 45.5,-24.1Q45.2,-24.3 44.7,-24.45Q44.2,-24.6 43.9,-24.8Q43.6,-25 43.7,-25.4Q43.9,-25.6 44.3,-25.8Q44.7,-26 44.9,-26.2Q44.9,-26.4 45,-26.95Q45.1,-27.5 45.3,-27.9Q46,-28.2 47.4,-28.4Q48.2,-28.6 49.2,-29Q50.2,-29.4 50.7,-29.6Q50.8,-29.8 51.15,-30.4Q51.5,-31 51.6,-31.5Q51.7,-32 51.6,-32.6Q51.9,-33.1 52.6,-34.05Q53.3,-35 53.3,-35.5Q53.3,-36 52.6,-36.3Q51.8,-35.9 50.6,-35.6Q49.4,-35.3 48.8,-35.1L45.4,-33.7Q41.9,-32.2 41.5,-32Q40.7,-31.9 40.1,-31.95Q39.5,-32 39.1,-32Q38.2,-32.2 37.6,-32.65Q37,-33.1 36.35,-33.85Q35.7,-34.6 35.1,-35.2L35.8,-36.4Q38,-36.2 39.2,-36.2Q39.6,-36.4 40.6,-36.65Q41.6,-36.9 41.8,-37.6Q42.4,-38 47.4,-40.6Q47.8,-40.7 48.7,-40.95Q49.6,-41.2 50.2,-41.6Q51.5,-42.1 54.3,-42.9Q55.3,-43.5 57.1,-44Q57.5,-44.1 58.2,-44.35Q58.9,-44.6 59.4,-44.9Q60.1,-44.9 61.1,-45.75Q62.1,-46.6 62.7,-46.7L62.9,-46.7Q63.5,-46.7 64.3,-46.25Q65.1,-45.8 65.4,-45.6L66.3,-46.5Q66.9,-47.5 68.5,-49.3Q68,-49.6 67.9,-50.3Q67.8,-51 67.8,-51.1Q67.5,-51.3 67.15,-51.25Q66.8,-51.2 66.6,-51.2Q65,-50.9 61.1,-50.5Q60.5,-50.4 57.15,-49.95Q53.8,-49.5 50.9,-48.6Q50.1,-48.4 48.45,-48.1Q46.8,-47.8 45.7,-47.3Q45.2,-47.2 43.85,-47Q42.5,-46.8 41.6,-46.1Q38.9,-45.6 36.6,-44.9L33.7,-44.8Q32.3,-44.8 31.7,-45Q30.8,-45.4 29.7,-45.6Q30,-40.2 30,-34.9Q30,-34.4 29.75,-33.55Q29.5,-32.7 29.5,-32.3Q29.5,-31.6 29.9,-31.2L28.8,-28.3Q28.5,-27.9 28.15,-27.15Q27.8,-26.4 27.4,-26Q27,-25.6 26.4,-25.8Q24.4,-28 23.6,-29.6Q23,-32.2 23,-34.7Q23,-36.8 23.6,-41Q24.3,-43 24.6,-45.6Q24.6,-45.8 24.75,-46.3Q24.9,-46.8 24.8,-47.2Q24.6,-47.6 24.1,-48.35Q23.6,-49.1 23.7,-49.8Q24.1,-50.9 26.2,-51.3Q26.6,-51.3 27.6,-51.35Q28.6,-51.4 29,-51.35Q29.4,-51.3 28.7,-51Q28.7,-50.5 29,-49.85Q29.3,-49.2 29.4,-48.8Q29.7,-48.6 30.05,-48.15Q30.4,-47.7 30.8,-47.5Q31.6,-47.3 31.9,-47.3Q32,-47.3 34.1,-47.6Q34.6,-47.8 35.5,-47.85Q36.4,-47.9 36.9,-48.3Q37.7,-48.6 39.3,-49Q42.7,-49.8 44.1,-50.8Q44.7,-51 45.55,-51.2Q46.4,-51.4 46.9,-51.65Q47.4,-51.9 47.3,-52.5Q45.3,-53.3 42.7,-53.3Q40.9,-53.3 40,-53.2Q38.1,-52.7 35.8,-52.3Q33.5,-51.9 32.7,-51.8Q32.3,-51.8 31.7,-51.7Q31.1,-51.6 30.7,-51.8Q31.2,-52.4 32.2,-52.55Q33.2,-52.7 33.7,-52.8Q34.8,-53.3 36.3,-53.55Q37.8,-53.8 38.4,-53.9Q38.8,-54 39.6,-54.3Q40.4,-54.6 41,-54.4Q41.7,-54.8 43.3,-55.2Q45.3,-56.3 45.9,-57.6Q46,-57.7 46.45,-57.95Q46.9,-58.2 47.1,-58.6Q48.7,-59.2 48.2,-60.1Q47.6,-61.1 46,-62.7Q45.1,-63.2 44.2,-64.3Q44,-64.4 43.5,-64.65Q43,-64.9 42.8,-65.3Q42.4,-65.5 41.75,-65.95Q41.1,-66.4 40.7,-66.8Q39.6,-67.3 38.8,-67.8Q37.7,-69.2 38.7,-69.1L39.5,-69ZM34.2,-46.9Q34,-46.8 34.15,-46.75Q34.3,-46.7 34.5,-46.8L34.2,-46.9Z"></path><path transform="translate(400 100)" d="M53.6,-71.5L53.6,-71.3L53.5,-70.2Q53.5,-69.7 53.9,-69.4Q54.9,-69.2 56,-69.5Q57.1,-69.8 57.3,-69.9Q58.5,-70.4 59.7,-70.5Q60.5,-70.5 61.75,-70.55Q63,-70.6 64.6,-70.5Q65.1,-70.4 65.55,-70Q66,-69.6 66.2,-69.5Q66.4,-69.2 66.9,-68.6Q67.4,-68 67.3,-67.5Q67.1,-66.9 67.1,-66.5Q67.1,-66 67.35,-64.8Q67.6,-63.6 67.5,-62.9Q67.1,-61.8 66.9,-59.6Q66.8,-58 66.8,-54.8Q66.8,-50.1 66.4,-46.5L66.4,-46.2L66.3,-44.9Q66.3,-44.2 66.7,-43.8Q67.8,-43.5 68.7,-43.5Q70.2,-43.6 73.2,-44.2Q73.9,-44.3 75.7,-44.6Q77.5,-44.9 79.1,-44.9Q81.2,-44.9 82.7,-44.4Q83.2,-44.1 84.25,-43.65Q85.3,-43.2 85.8,-42.65Q86.3,-42.1 85.9,-41.3Q86.1,-40.8 86.5,-39.95Q86.9,-39.1 86.8,-38.4Q86.7,-38.1 86.45,-37.45Q86.2,-36.8 85.9,-36.4Q85.7,-35.4 85.3,-35Q84.5,-34.6 82.9,-34.2Q81.9,-34.1 80.4,-33.8Q78.9,-33.5 77.8,-33.5Q76.9,-33.5 75.8,-33.8Q75.3,-33.4 74.5,-33.4Q73.9,-33.4 72.65,-33.85Q71.4,-34.3 70.8,-34.3Q68.8,-35.1 67.6,-35.1Q67.1,-35.1 66.3,-34.9Q65.9,-24 65.9,-10.2Q65.8,-8.1 65.8,-4L65.2,5.2Q65.3,7.2 64.65,9.45Q64,11.7 63.9,12.3Q63.7,12.7 63.4,13.3Q63.1,13.9 62.9,14.05Q62.7,14.2 62.6,13.6Q62.3,13.3 62.2,12.75Q62.1,12.2 62.1,12Q61.6,11.2 61.6,10.3Q61.5,10.1 61.15,9.45Q60.8,8.8 61,8.2Q60.7,7.5 60.65,6.45Q60.6,5.4 60.6,4.9Q60.1,1 59.7,-6.8L59.5,-10.7L59.5,-18.4Q59.5,-28.7 59.2,-33.8L57.6,-33.6Q51.4,-32 47.8,-31.5Q45,-30.8 43,-30.8Q42.4,-30.8 41,-31Q40.4,-31.2 40.25,-31.75Q40.1,-32.3 39.7,-32.6Q39.8,-33.2 40.25,-33.7Q40.7,-34.2 40.9,-34.5Q41.1,-34.6 41.55,-34.9Q42,-35.2 42.4,-35.3Q42.8,-35.4 43.2,-35.2Q43.3,-35 43.4,-34.45Q43.5,-33.9 44.1,-33.9Q44.9,-34 45.95,-34.45Q47,-34.9 47.6,-35.1Q48.8,-35.5 49.3,-35.5Q50.6,-36.3 52.05,-36.75Q53.5,-37.2 55.7,-37.7Q58.1,-38.3 59.3,-38.7L59.8,-57.1Q59.7,-57.6 59.8,-58.5Q59.9,-59.4 59.9,-59.9Q59.9,-60.9 59.6,-61.6Q59.3,-62 58.95,-62.65Q58.6,-63.3 58.4,-63.7Q58.3,-64.3 58.25,-64.95Q58.2,-65.6 58.05,-66Q57.9,-66.4 57.4,-66.6Q54.6,-67.3 52.8,-68.9Q52.6,-69.7 52.6,-69.9Q52.6,-70.4 52.9,-70.8L53.6,-71.5ZM32.8,-58.3Q34.2,-57.9 34.8,-56.5Q35.3,-56.3 35.5,-55.9Q35.7,-55.5 35.85,-54.65Q36,-53.8 36.3,-53.4Q36.4,-53.1 36.4,-52.5Q36.4,-51.6 35.85,-50.4Q35.3,-49.2 35.1,-48.4Q34.5,-48 33.7,-47.9Q32.9,-47.8 32.7,-47.8L32.5,-47.8L31.4,-47.7Q30.8,-47.7 30.5,-48.2Q30.1,-48.3 29.45,-48.2Q28.8,-48.1 28.4,-48.1Q27.6,-48.1 27.2,-48.5Q27.3,-49 27.8,-49.55Q28.3,-50.1 28.5,-50.55Q28.7,-51 28.4,-51.5Q27.7,-52.3 26.7,-52.9Q25.7,-53.5 24.6,-53.9Q24.3,-54 23.75,-54.2Q23.2,-54.4 22.5,-54.8Q21.8,-55.1 20,-55.5Q18,-55.9 17.1,-56.35Q16.2,-56.8 16.4,-57.9Q16.7,-58.1 17.15,-58.2Q17.6,-58.3 17.8,-58.3Q19.5,-58.3 20.7,-58.4Q21.9,-58.5 22.8,-58.6Q25.4,-58.9 27.8,-58.9Q29.7,-58.9 31.6,-58.6L32.8,-58.3ZM13.5,-41.1L14.2,-41Q15,-40.5 16.2,-40.3Q17.5,-40.2 20,-40.2Q23,-40.2 28.6,-40.4Q29.2,-40.5 30.05,-40.7Q30.9,-40.9 31.5,-40.9Q33.5,-40.9 35.05,-39.65Q36.6,-38.4 36.7,-36.4Q37,-35.7 37,-34.1Q36.9,-32.2 36.2,-30.5Q35.5,-28.8 34.1,-26.3Q32.9,-24.1 32.4,-22.9Q32.4,-22.6 32.3,-21.95Q32.2,-21.3 32,-20.8Q35,-21.2 36.6,-21.7L37.3,-21.6Q37.6,-21.6 38.2,-21.8Q38.6,-22 39.6,-22.6Q40.6,-23.2 41.2,-23.2Q41.9,-23.2 42,-22.4Q41.9,-22.2 41.75,-21.7Q41.6,-21.2 41.3,-20.9Q40.7,-20.4 39.35,-19.45Q38,-18.5 38,-17.9Q37.6,-17.1 37.1,-16.6Q35.3,-15.9 35,-13.8Q34.1,-13.2 33.8,-12.6Q34,-12.8 31.8,-10Q30.1,-7.7 28.5,-5.9Q27.9,-5.5 27.4,-4.7Q26.9,-3.9 26.6,-3.6Q26.2,-3.4 25.6,-3.3Q25,-3.2 24.8,-3.2Q24.3,-3.5 23.7,-4.2Q23.1,-4.9 22.7,-5.2Q22.4,-5.6 22.2,-6.7Q22,-6.9 21.45,-7.3Q20.9,-7.7 20.7,-8.3Q20.5,-9.7 20.5,-10.3Q20.5,-10.9 20.6,-11.2Q20.3,-12.6 20.3,-13.9Q20.3,-15.7 20.9,-16.8Q20.1,-17.9 20.4,-19.1Q21,-19.6 21.4,-20.5Q21.8,-21.4 21.95,-22.1Q22.1,-22.8 22.3,-23.3Q23.3,-25.8 25.9,-30.6Q26.1,-30.8 26.9,-31.8Q27.3,-32.2 27.3,-32.8Q27.3,-33.5 25.9,-34.9Q24.4,-35.4 18.9,-36.8Q18,-37 15.4,-37.6Q15.1,-37.7 14.25,-38.05Q13.4,-38.4 13.1,-39.1L13.2,-39.5Q13.2,-39.8 13,-40.2Q12.8,-40.6 12.7,-41L12.8,-41.1L13.5,-41.1Z"></path><path transform="translate(500 100)" d="M87.8,-0.6Q87.8,3.1 86.5,7.2Q86.2,8 84.9,10.2Q84.3,10.9 82.7,11.9Q81.1,11.5 79.7,10.4Q77,9 72,5.8L69.1,3.9Q67.9,3.2 65.5,2Q65.3,2 64.6,1.9Q63.9,1.8 63.5,1.4Q64.5,0.9 66.5,0.1Q69.3,0.1 73.8,-1.4Q74.2,-1.6 75.3,-2.15Q76.4,-2.7 77.1,-3.4Q77.9,-4.7 77.9,-6.8L77.8,-10.5Q77.4,-17.2 77.4,-25.6L77.4,-35.6L77.4,-40.6L77.8,-47.8Q78.3,-53.3 78.3,-57.6Q78.3,-60.3 78,-63Q77,-63.7 75.7,-63.8Q74.4,-63.9 74.2,-63.9Q73.7,-63.9 73.2,-63.7Q72.7,-63.5 72.2,-63.5Q71.6,-63.5 71.5,-63.9Q71.9,-64.6 72.25,-65.55Q72.6,-66.5 73.1,-67.1Q73.6,-67.6 74.6,-68.55Q75.6,-69.5 76.1,-70.4L76.6,-70.7Q76.6,-70.9 76.8,-71.2Q77.9,-72.5 78.4,-72.8L78.7,-72.7L80.5,-72.7Q81.8,-72.7 82.4,-72.2Q82.6,-71.4 83.6,-70.4Q83.9,-69.5 84.5,-68.6Q85.1,-67.7 85.2,-67.5Q86.8,-62.8 87.1,-58.6Q87.5,-52.2 87.5,-44L87.4,-30.3Q87.2,-21.1 87.2,-16.6Q87.2,-10.5 87.3,-7.4Q87.3,-6.7 87.35,-5.3Q87.4,-3.9 87.7,-2.8Q87.8,-2.1 87.8,-0.6ZM36.65,-65.05Q36.2,-65.4 36.1,-65.7Q36,-66 36.3,-66.3Q37.1,-67 38.7,-67Q40.3,-67 40.8,-67.1Q41.2,-67.2 41.95,-67.65Q42.7,-68.1 43.2,-67.8Q44.5,-68.2 47.1,-68.4L47.4,-68.3Q48.2,-68.3 49.1,-67.75Q50,-67.2 50.5,-66.9Q50.7,-66.6 51.5,-65Q51.6,-64.3 51.7,-62.95Q51.8,-61.6 52.4,-61.2Q51.7,-59.3 50.7,-59.9L50.5,-59.9Q50.1,-59.9 49.3,-59.65Q48.5,-59.4 48.1,-59.5Q44.5,-60.7 42.9,-61.7Q42.5,-61.7 41.9,-61.65Q41.3,-61.6 40.9,-61.7L40.8,-61.9Q40.8,-62.1 41.05,-62.4Q41.3,-62.7 41.3,-62.9Q40.8,-63.1 39.35,-63.5Q37.9,-63.9 37.3,-64.6Q37.1,-64.7 36.65,-65.05ZM58.5,2.4Q58.5,3.2 58.7,3.6Q58.7,5.3 57.8,6.5Q57.1,7.1 56.1,7.4Q55.1,7.7 54.7,7.9L52.3,6.2Q51.7,6 51.05,5.5Q50.4,5 50,4.8Q49.3,4 48.2,3.6Q43.2,-1 40.6,-4.2Q38.2,-7.9 35.4,-13.1Q34.8,-12.6 33.7,-12Q32.6,-11.4 32.1,-10.6Q28.3,-7.6 27.7,-7Q27.4,-6.9 27.1,-6.6Q26.8,-6.3 26.6,-6.1Q24.3,-4.1 19.6,-1.5Q16.1,0.4 13.7,2.2Q13.4,2.3 12.85,2.6Q12.3,2.9 12.1,2.4Q12.7,1.3 13.6,0.45Q14.5,-0.4 16,-1.5Q16.7,-1.9 17.9,-2.9Q19.4,-4.7 20,-5.5Q20.1,-6.1 20.6,-6.85Q21.1,-7.6 21.2,-8.1Q22.7,-9.4 23,-9.7Q23.3,-10.5 24,-11.2Q24.7,-11.9 25.4,-12.5Q26.3,-13.2 27.2,-14.2Q27.7,-14.4 27.95,-15Q28.2,-15.6 28.3,-15.8Q29.5,-16.8 30,-18Q30.7,-18.7 32.6,-21.3Q32.5,-22 32.3,-22.45Q32.1,-22.9 32,-23.3Q31.2,-25.7 31.3,-26.9Q31.2,-27.4 31.1,-28.35Q31,-29.3 30.5,-29.7Q29.6,-29.9 28.7,-30.7Q26.5,-29.3 24.1,-26.7L21.6,-24.3Q21.2,-24.5 20.05,-24.95Q18.9,-25.4 18.1,-25.9Q15.8,-27.5 13.8,-31.1Q12.7,-34.3 12.1,-35.4L12.1,-35.6Q12.1,-36.8 13.2,-38.1Q13.5,-38.3 14.45,-38.9Q15.4,-39.5 16.3,-39.6Q16.5,-39.5 17.25,-39.25Q18,-39 18.4,-38.5Q18.9,-38.4 19.45,-38.4Q20,-38.4 20.2,-38.4Q21.6,-39.3 24,-41.5Q24.8,-41.7 26,-43.3Q26.5,-44.2 26.55,-45.5Q26.6,-46.8 26.6,-47.2Q27.2,-48.6 27.15,-50.5Q27.1,-52.4 27.1,-53Q26.9,-53.4 26.8,-54.05Q26.7,-54.7 26.7,-54.9Q26.5,-55.8 25.9,-56.75Q25.3,-57.7 25.1,-58Q25,-58.4 24.55,-59.55Q24.1,-60.7 24.2,-61.7L24.3,-62.2Q24.3,-62.5 24,-63.25Q23.7,-64 23.8,-64.4Q24,-65 24.6,-65.55Q25.2,-66.1 25.4,-66.3Q25.8,-67.6 26.4,-67.8L26.6,-67.8Q27,-67.8 27.55,-68Q28.1,-68.2 28.4,-68.1L28.8,-68Q32.1,-65 33.5,-59.3Q33.9,-57.1 34.3,-56Q34.3,-55.1 34.85,-54.15Q35.4,-53.2 35.6,-52.7L38.3,-52.2Q40.7,-52.9 41.6,-53.3Q43.8,-53.8 46.9,-55.6Q47.7,-56.5 49.05,-56.95Q50.4,-57.4 50.8,-57.5Q51.7,-57.6 53.3,-57.6Q55,-57.6 55.8,-57.3Q55.9,-57.2 56.45,-56.75Q57,-56.3 57.2,-55.8Q57.4,-55.3 57.3,-54.8Q56.8,-54.4 56.3,-53.45Q55.8,-52.5 55.4,-52.1Q54.8,-51 53.85,-50.1Q52.9,-49.2 51.4,-48.2L49.7,-47Q49.2,-46.7 47.1,-45.35Q45,-44 43.3,-42.6Q43.1,-42.5 42.7,-42.35Q42.3,-42.2 42.2,-41.9L38,-38.5Q37.9,-37.7 37.7,-36.7Q37.5,-35.7 37.5,-35Q37.7,-34.3 37.9,-32.9Q38.3,-29.8 39.1,-28.4Q39.5,-28.9 40.1,-29.45Q40.7,-30 40.95,-30.45Q41.2,-30.9 41,-31.5Q41.1,-31.7 41.1,-32.1Q41.1,-33 40.3,-33.5L41.9,-35.2Q42,-35.4 42.15,-35.95Q42.3,-36.5 42.6,-36.8Q42.9,-37.1 43.4,-37Q46,-36.3 48.4,-33.1Q48.7,-32.6 49.35,-31.45Q50,-30.3 50.4,-29.35Q50.8,-28.4 50.9,-27.4Q50.7,-26.4 49.85,-25.35Q49,-24.3 48.7,-23.9Q48.4,-23.3 48.1,-23.25Q47.8,-23.2 48.1,-23.9L42.2,-18.3L43.9,-15.3Q44,-15.2 44.5,-14.6Q45,-14 45.5,-13.8Q46,-13.6 46.5,-13.9Q47.1,-14.9 47.6,-15.3Q48,-15.9 48.35,-16.35Q48.7,-16.8 49,-17.2Q49.7,-18.9 50.6,-21.5Q50.8,-22.3 51.4,-23.9Q51.6,-24.3 51.8,-25.7Q52,-27.1 52.25,-27.7Q52.5,-28.3 53,-27.9Q52.9,-27.7 52.9,-27.3Q52.9,-26.8 53.1,-26L53.1,-25.4Q53.1,-24.7 53.3,-24.4Q53.3,-24.1 53.4,-23.1Q53.5,-22.1 53.9,-21.3Q53.9,-20.9 54.1,-19Q54.3,-17.1 55,-15.5Q55.2,-14.2 55.5,-13.6Q55.6,-11 56.8,-6Q57,-5.3 57.25,-4.25Q57.5,-3.2 57.7,-1.9Q57.8,-1.4 58.15,-0.7Q58.5,-0 58.6,0.5L58.5,2.4ZM36.75,-49.95Q37.3,-50.1 37.5,-50.4L37.1,-50.4Q36.6,-50.3 36.2,-50.15Q35.8,-50 35.9,-49.6Q36.2,-49.8 36.75,-49.95ZM69.2,-47.6L69.1,-47.6Q69.1,-48.2 69.3,-48.9Q69.5,-49.6 69.6,-49.9L69.7,-50.1Q69.5,-48.4 69.2,-47.6ZM66.6,-23.7Q66,-21.3 65.55,-20.05Q65.1,-18.8 64.1,-17.8Q63.6,-18 62.35,-18.65Q61.1,-19.3 60,-19.3Q59.6,-19.6 59.4,-20.7Q59.4,-22 59.2,-22.6Q59.1,-22.9 58.85,-23.55Q58.6,-24.2 58.1,-24.6Q57.9,-25.4 57.9,-25.9L58,-26.8Q58.7,-31 60,-36.2Q60.1,-36.5 60.45,-37.05Q60.8,-37.6 60.6,-38L58.6,-38.9L58.4,-38.9L56.7,-38.8Q56,-38.8 55.7,-39.1Q56,-40.3 56.7,-41.3Q57.2,-41.7 58.65,-42.6Q60.1,-43.5 60.8,-44.6Q61.4,-44.9 62.3,-44.95Q63.2,-45 63.6,-45Q63.8,-44.7 64.25,-44.5Q64.7,-44.3 64.8,-44.2Q65.9,-42.2 67.1,-42.8Q67.3,-43.3 67.9,-44.6Q68.5,-45.9 68.8,-47.1L69,-47.1L69.1,-46.9L68.2,-40.5Q68.3,-40 68.3,-38.8Q68.3,-37.7 68.1,-37.1Q68,-36.5 68.1,-35.7Q68.2,-34.9 68.2,-34.5Q68.2,-33.6 67.8,-33.1L67.8,-32.3Q67.8,-31.6 67.6,-31.2Q67.7,-30.7 67.55,-29.75Q67.4,-28.8 67.6,-28.3Q67.3,-27.9 67.25,-27.3Q67.2,-26.7 67.2,-26.4Q66.8,-25.1 66.6,-23.7ZM75.65,-1.8Q75.8,-1.9 75.9,-2L75.6,-1.9L75.4,-1.8Q75.5,-1.7 75.65,-1.8ZM55.8,8.1Q55.6,8.1 55.7,7.9L55.8,7.9Q56,8.1 55.8,8.1Z"></path><path transform="translate(0 200)" d="M34.7,-61.2Q29.1,-59.2 21.5,-56.1Q20.9,-55.9 17.65,-54.7Q14.4,-53.5 11.4,-52.9Q11,-52.8 10.4,-52.7Q9.8,-52.6 8.9,-52.6Q7.8,-52.6 7.3,-53.3Q7.1,-53.4 6.7,-53.4Q6.1,-53.4 4.7,-52.7Q4.1,-52 4.1,-51Q4.1,-50 4.8,-48.95Q5.5,-47.9 6.5,-47.2Q8.3,-46.4 11.7,-45.6Q15.3,-45.4 17,-45.5Q21.5,-46.4 26.1,-47.6Q27.4,-47.8 30,-48Q29.8,-47.6 29.35,-47Q28.9,-46.4 28.8,-45.9Q28.9,-45.4 28.9,-44.25Q28.9,-43.1 29.3,-42.4Q31.3,-40.9 31.2,-39.1Q30.9,-36.3 30.5,-30.7Q30.2,-25.7 29.75,-21.95Q29.3,-18.2 28.3,-14.7L27.3,-13Q26.9,-12.4 26.15,-11.15Q25.4,-9.9 25,-8.9Q26.5,-3.4 32.8,2.4Q33.8,3.3 35.1,3.3Q36.6,3.3 37.6,2.05Q38.6,0.8 38.4,-1L39.4,-13.6Q41,-32.6 41.3,-42.1Q41.2,-42.8 40.95,-44.25Q40.7,-45.7 40.3,-46.8Q40.1,-47.1 39.5,-47.95Q38.9,-48.8 38.7,-49.6Q42.9,-50.6 46.2,-50.6Q49.4,-50.6 52.5,-49.7Q52.9,-49.7 53.9,-49.55Q54.9,-49.4 55.6,-49.5Q56.1,-49.6 57.8,-50.6Q58.1,-50.7 58.85,-50.95Q59.6,-51.2 60.1,-51.55Q60.6,-51.9 60.8,-52.4Q61,-56.6 59.5,-58.8Q56.9,-62.9 56.5,-63.5Q54.8,-64.9 52.3,-64.9Q50.9,-64.9 49,-64.55Q47.1,-64.2 46.1,-64L43.7,-63.5Q40.5,-62.8 39.4,-62.5Q38.5,-62 37.35,-61.75Q36.2,-61.5 35.9,-61.4L34.7,-61.2Z"></path><path transform="translate(65 200)" d="M17.2,-56.9Q17.1,-56.5 16.5,-56.3L18.2,-55.4Q23.7,-54.3 23.7,-51.6Q23.7,-51 23.4,-50.2Q21.5,-45.9 19.8,-41L18.5,-37.6Q17.9,-36.2 17.7,-35.5Q15.8,-30.8 14.3,-27.8Q12.8,-24.8 10.6,-22.3Q7.5,-17.8 5.7,-13.5Q3.9,-9.2 4,-4.8Q4.2,-4.3 5.1,-3.6Q5.7,-2.5 5.8,-1.2Q5.9,0.1 5.9,0.4Q7.2,1.8 10.2,3.6Q10.4,3.7 11,3.9Q11.6,4.1 12,4.1Q13.4,2.1 14.9,-1.6L15.8,-3.6Q16.4,-4.8 18.5,-10.3Q19.3,-12.5 21.1,-16.9Q25,-22.8 28.1,-25.8Q29.2,-26.6 29.7,-27.3Q30.8,-28.4 31.45,-28.85Q32.1,-29.3 32.8,-29.1Q33,-28.9 33,-28.4Q33,-27.9 32.8,-27.1L32.2,-25.1Q31.5,-22.6 30.9,-20Q30.3,-17.4 30.2,-15.1Q30.3,-9.7 31.1,-6.25Q31.9,-2.8 34.7,-0.6Q36.3,0.6 38.3,0.6Q40.8,0.6 43.45,-1.4Q46.1,-3.4 48.2,-6.2Q52.2,-12.1 54.3,-16.3Q52.3,-16.1 50.55,-15.2Q48.8,-14.3 46.4,-12.5Q45,-11.5 43.45,-10.6Q41.9,-9.7 40.5,-9.2Q39.3,-9 38.7,-9Q38.2,-9 37.6,-9.3Q37.3,-10.1 37.3,-11.15Q37.3,-12.2 37.3,-12.4Q37.4,-13.3 37.5,-14.65Q37.6,-16 37.9,-17.8Q38.3,-19.8 38.7,-21.3Q39.1,-22.8 39.4,-23.8L40.3,-27L41.1,-29.3Q42.7,-33.4 43.1,-35.8Q43.2,-36.2 43.2,-37Q43.2,-39.1 42.4,-40.75Q41.6,-42.4 40.1,-42.4Q39.5,-42.4 39.2,-42.3Q38,-42 36.75,-41.3Q35.5,-40.6 35,-40.4Q34.4,-40.1 33.2,-38.9Q32.2,-37.8 31.4,-37.35Q30.6,-36.9 29.7,-37.3Q29.6,-39.2 29.9,-40.85Q30.2,-42.5 31,-45.6Q31.1,-46.1 31.7,-48.2Q32.3,-50.3 32.4,-52.2Q32.3,-54.2 32,-55.65Q31.7,-57.1 30.9,-58.3Q28.3,-60.9 27.1,-62.3Q23.4,-62.3 19.5,-60.1Q19.1,-59.8 18.2,-59.15Q17.3,-58.5 16.8,-57.9L17.2,-56.9ZM54.5,-16.9Q54.4,-16.7 54.45,-16.5Q54.5,-16.3 54.6,-16.6L54.5,-16.9Z"></path><path transform="translate(124 200)" d="M11.7,-37.1L8.9,-34.5Q8.2,-33.6 6.1,-29.8Q5.4,-28 5.05,-26Q4.7,-24 4.5,-22.25Q4.3,-20.5 4.2,-20Q4,-17.2 4,-15.6Q4,-1.7 11.6,3.5Q13.8,4.4 15.6,4.85Q17.4,5.3 19.2,5.1Q28.6,3 38.1,-0.45Q47.6,-3.9 58.8,-8.9Q56.6,-8.8 53.3,-7.5Q51.5,-6.7 49.7,-6.3Q46.5,-5.7 39.8,-3.7L36.6,-2.7Q30.8,-0.9 27.9,-0.1Q27.2,-0 26.15,0.1Q25.1,0.2 23.7,0.2Q22.8,0.2 21.2,-0Q19.7,-0.4 18.6,-0.5Q15.7,-1 13.9,-1.7Q12.1,-2.4 11,-4.1Q10.8,-4.4 10.3,-5.5Q9.8,-6.6 9.5,-7.6Q9.2,-8.6 9.2,-9.5Q9.3,-10.3 9.5,-10.75Q9.7,-11.2 10.2,-11.1Q11.1,-10.7 12,-9.9Q12.9,-9.1 13.1,-8.9Q14.1,-8.3 15.5,-8.25Q16.9,-8.2 17.4,-8.2Q31.8,-9.7 42.6,-16.2Q45.6,-18.7 46.6,-22.2Q47,-24.4 47,-25.5Q47,-27.5 46.3,-30.3Q44.7,-34.6 40.95,-37.55Q37.2,-40.5 32.5,-41.7Q30.1,-42.1 28.8,-42.1Q23,-42.1 14.9,-38.4L14.5,-38.4Q14,-38.4 13.35,-38.05Q12.7,-37.7 12.4,-37.6L11.7,-37.1ZM14.1,-27.3Q16.3,-29.7 19.15,-31.15Q22,-32.6 25.2,-32.8Q26.2,-32.8 30.15,-32.8Q34.1,-32.8 36.75,-31.55Q39.4,-30.3 39.9,-27.6Q39.5,-26.6 38.1,-25Q37.4,-24.7 36.55,-24.1Q35.7,-23.5 35.3,-23.2Q26.9,-18.8 17.4,-19.1Q16.9,-19.2 15.9,-19.3Q14.9,-19.4 14.2,-19.7Q14,-19.8 13.55,-20.15Q13.1,-20.5 12.65,-20.65Q12.2,-20.8 11.8,-20.6Q11.4,-21.3 11.4,-22.1Q11.4,-23.8 13.3,-26.3L14.1,-27.3Z"></path><path transform="translate(187 200)" d=""></path><path transform="translate(217 200)" d="M4.6,-57.2L5.4,-56.2Q6,-55.7 7,-55Q8,-54.3 8.65,-53.6Q9.3,-52.9 9.7,-52Q9.1,-48.2 8.7,-46.3Q7.3,-38.3 7.1,-34.1Q6,-30.5 5.5,-26.95Q5,-23.4 4.3,-17.1L4,-13.9Q4.1,-12.7 4.1,-10.2L4.1,-7Q4.1,-1.6 5,1.7Q5.5,2.1 5.75,2.8Q6,3.5 6.1,3.8Q7.8,3.3 9.2,1.2Q10.1,-0.4 11,-3.6Q11.3,-4.2 11.7,-5.6L12.6,-9.6Q13.6,-14.8 14.4,-17.4Q14.8,-17.6 15,-17.6Q15.3,-17.6 15.75,-17.4Q16.2,-17.2 16.5,-17.1Q20.2,-14.8 24.4,-14.8Q27.3,-14.8 30,-15.95Q32.7,-17.1 34.8,-19.4Q38.8,-24.6 40.25,-31.3Q41.7,-38 41.5,-46.1Q41.2,-51.3 40.25,-54.85Q39.3,-58.4 36.6,-60.8Q34.4,-62.6 33.4,-63.6Q33.1,-63.8 32.6,-63.9Q32.1,-64 31.9,-64Q31.6,-64 30,-63.9Q28.4,-63.8 27.1,-63.1Q24.5,-60.8 21.7,-60Q20.8,-59.5 19.7,-58.4Q18.6,-59.7 17,-62.7Q16.7,-63.3 16.45,-63.75Q16.2,-64.2 16,-64.6Q13.8,-64.6 12.8,-65Q12,-64.7 11.2,-63.95Q10.4,-63.2 10,-62.9L8.5,-61.2Q6.3,-58.7 4.6,-57.4L4.6,-57.2ZM30.3,-52.7Q31.8,-52.7 32.8,-51.8Q32.8,-48.2 32.3,-43.7Q31.2,-37.7 30.35,-34.4Q29.5,-31.1 27.35,-28.15Q25.2,-25.2 21.4,-24.7Q20.7,-24.8 19.4,-24.8Q17.4,-24.8 15.9,-25.2Q16.2,-30.2 17.8,-40.2L18.8,-46.9Q18.8,-47 18.8,-47.6Q18.8,-48.2 19.2,-47.8Q19.9,-47.8 21.1,-48Q22.1,-48.3 23.25,-48.9Q24.4,-49.5 24.8,-49.7Q25.6,-50.1 26.4,-50.9Q28.6,-52.5 29.9,-52.7L30.3,-52.7Z"></path><path transform="translate(262 200)" d="M19.1,-31.3Q16.5,-35.4 13.55,-38Q10.6,-40.6 7,-40.6Q6.2,-40.6 5.7,-40.5Q4.5,-40.3 4.5,-39.5Q4.5,-39.1 4.9,-38.8Q3.9,-38 4.1,-37.3Q4.4,-36.8 5.1,-35.55Q5.8,-34.3 6.6,-33.5Q7.2,-33.1 8.6,-32.1Q10,-31.1 10.7,-30Q11.6,-28.2 11.6,-26.3Q11.6,-24.6 11.15,-22.95Q10.7,-21.3 10.2,-19.9Q9.7,-18.5 9.6,-18.1Q7.4,-13.4 6.45,-10.85Q5.5,-8.3 5.4,-5.3Q6.2,-4.7 6,-3.4Q6.2,-1 7.6,1.1Q9,3.2 11.2,4.1Q11.5,4.1 12.15,4.25Q12.8,4.4 13.3,4.3Q18.6,-1.7 19.3,-8.3Q19.5,-10.5 19.5,-11.5Q20.1,-18.5 20.9,-22.1Q21.7,-24.1 22.95,-26.35Q24.2,-28.6 24.6,-29.4Q28.7,-35.3 33.7,-39.4Q35.4,-41.1 36,-42.5Q35.1,-42.4 33.7,-41.8Q30.2,-40.2 25.1,-35.8Q20.7,-32.4 19.5,-31.6L19.1,-31.3Z"></path><path transform="translate(298 200)" d="M0.5,-29.5Q1.4,-29.7 3.5,-30.5Q4,-30.7 4.65,-30.95Q5.3,-31.2 6.2,-31.4Q7.3,-31.6 8.9,-31.75Q10.5,-31.9 11.4,-32Q12.7,-31.8 13.45,-31.5Q14.2,-31.2 14.3,-30.3Q14,-28.4 13.2,-26Q12.4,-23.6 12.2,-22.3Q11.5,-16.8 11.4,-12.4Q11.5,-11.6 11.7,-7.5Q11.9,-3.4 13.35,-0.5Q14.8,2.4 17.4,3.6Q18.5,3.9 19.6,3.9Q22.3,3.9 24.8,2.5Q27.6,0.8 34.4,-4.3L37.5,-6.6Q41.7,-10.4 44.25,-13.4Q46.8,-16.4 47.8,-20.1Q48.1,-21.8 48.1,-23.3Q48.1,-28.2 45.3,-32.65Q42.5,-37.1 37.9,-39.7Q32.5,-42.3 26.7,-42.3Q20.8,-42.3 16,-39.7Q12.4,-37.7 5.4,-33.1L3.5,-31.8Q3.1,-31.5 2.15,-31.15Q1.2,-30.8 0.65,-30.5Q0.1,-30.2 0,-29.5L0.5,-29.5ZM23.4,-32.8L27.9,-32.8Q31.1,-32.8 33.6,-32.4Q36.6,-31.8 38.8,-29.9Q41,-28 41,-25.5Q41,-24.6 40.5,-23.4Q37.6,-17.7 32.95,-13.15Q28.3,-8.6 22.5,-5.8Q21.6,-5.5 20.7,-5.5Q19.5,-5.5 18.65,-6.15Q17.8,-6.8 17.6,-8L17.5,-15.6Q17.5,-20.6 18.25,-24.4Q19,-28.2 21.3,-31.3L23.4,-32.8Z"></path><path transform="translate(350 200)" d="M16.6,-52Q16.3,-51.6 16.6,-50.9Q17.5,-50.2 18.75,-49.75Q20,-49.3 20.3,-49.2Q21.5,-48.8 23.15,-48.55Q24.8,-48.3 25.5,-48.2Q26.8,-48.3 28.8,-48Q30.4,-47.8 31.3,-47.8Q34.1,-47.8 33.5,-50Q34.2,-50.7 34.2,-51.3Q34.2,-51.8 33.8,-52.1Q33.7,-52.2 33.7,-52.4Q33.7,-52.7 33.95,-53.05Q34.2,-53.4 34.3,-53.6L33,-55.6Q31.6,-58.8 28.6,-58.8Q27.5,-58.8 26.2,-58.45Q24.9,-58.1 24.2,-58Q23.4,-57.7 21.2,-57Q19,-56.3 17.4,-55.3Q16,-53.9 15.1,-53.4L16.4,-52.4L16.6,-52ZM23.6,-36.6L23.4,-33.3Q23.6,-32.5 24.45,-31.7Q25.3,-30.9 25.7,-30.5L25.6,-23.1Q25.3,-16.4 24.25,-10.85Q23.2,-5.3 20.6,-0.6Q20.2,-0.1 19.4,1Q18.6,2.1 17.7,2.6Q16.3,3.4 14.7,3.65Q13.1,3.9 11.5,4Q9.9,4.1 9.2,4.1L6.2,4Q4,4 4,4.9Q4,5.3 4.4,5.8Q5.1,6.3 6.05,6.75Q7,7.2 7.3,7.4Q9.3,8.8 9.5,9Q12,10.8 13.95,11.9Q15.9,13 18,13.3Q18.5,13.3 19.15,13.4Q19.8,13.5 20.4,13.5Q22.1,13.5 22.7,12.4Q23.6,12 26.7,10.1Q30.4,7 31.7,2.55Q33,-1.9 33.7,-9.3Q33.8,-11.3 34.2,-14.1L34.3,-17.4Q34.5,-21.8 34.5,-24Q34,-29.2 33.25,-32.85Q32.5,-36.5 30.8,-39.7Q30.3,-40.8 29.45,-41.4Q28.6,-42 27.6,-42Q26.2,-42 25.05,-41.05Q23.9,-40.1 23.5,-38.6Q23.4,-38.3 23.2,-37.75Q23,-37.2 23.4,-36.9L23.6,-36.6Z"></path><path transform="translate(388 200)" d="M11.7,-37.1L8.9,-34.5Q8.2,-33.6 6.1,-29.8Q5.4,-28 5.05,-26Q4.7,-24 4.5,-22.25Q4.3,-20.5 4.2,-20Q4,-17.2 4,-15.6Q4,-1.7 11.6,3.5Q13.8,4.4 15.6,4.85Q17.4,5.3 19.2,5.1Q28.6,3 38.1,-0.45Q47.6,-3.9 58.8,-8.9Q56.6,-8.8 53.3,-7.5Q51.5,-6.7 49.7,-6.3Q46.5,-5.7 39.8,-3.7L36.6,-2.7Q30.8,-0.9 27.9,-0.1Q27.2,-0 26.15,0.1Q25.1,0.2 23.7,0.2Q22.8,0.2 21.2,-0Q19.7,-0.4 18.6,-0.5Q15.7,-1 13.9,-1.7Q12.1,-2.4 11,-4.1Q10.8,-4.4 10.3,-5.5Q9.8,-6.6 9.5,-7.6Q9.2,-8.6 9.2,-9.5Q9.3,-10.3 9.5,-10.75Q9.7,-11.2 10.2,-11.1Q11.1,-10.7 12,-9.9Q12.9,-9.1 13.1,-8.9Q14.1,-8.3 15.5,-8.25Q16.9,-8.2 17.4,-8.2Q31.8,-9.7 42.6,-16.2Q45.6,-18.7 46.6,-22.2Q47,-24.4 47,-25.5Q47,-27.5 46.3,-30.3Q44.7,-34.6 40.95,-37.55Q37.2,-40.5 32.5,-41.7Q30.1,-42.1 28.8,-42.1Q23,-42.1 14.9,-38.4L14.5,-38.4Q14,-38.4 13.35,-38.05Q12.7,-37.7 12.4,-37.6L11.7,-37.1ZM14.1,-27.3Q16.3,-29.7 19.15,-31.15Q22,-32.6 25.2,-32.8Q26.2,-32.8 30.15,-32.8Q34.1,-32.8 36.75,-31.55Q39.4,-30.3 39.9,-27.6Q39.5,-26.6 38.1,-25Q37.4,-24.7 36.55,-24.1Q35.7,-23.5 35.3,-23.2Q26.9,-18.8 17.4,-19.1Q16.9,-19.2 15.9,-19.3Q14.9,-19.4 14.2,-19.7Q14,-19.8 13.55,-20.15Q13.1,-20.5 12.65,-20.65Q12.2,-20.8 11.8,-20.6Q11.4,-21.3 11.4,-22.1Q11.4,-23.8 13.3,-26.3L14.1,-27.3Z"></path><path transform="translate(451 200)" d="M21.7,-40.9Q22.2,-40.7 22.2,-40.5Q22.2,-40.1 21.4,-39.65Q20.6,-39.2 20,-39.1Q20.2,-39.3 20.6,-39.7Q21,-40.1 20.6,-40.5Q19.8,-40.5 19.8,-39.7Q18.5,-39.2 17.3,-38.1Q16.1,-37 15.9,-36.8Q10.7,-30.7 7.85,-26.35Q5,-22 4,-16.9Q4.1,-16 4,-14.65Q3.9,-13.3 3.9,-12.4Q3.9,-10.4 4.4,-9Q5,-5.5 6,-3.5Q7.4,-0.8 9.6,1.2Q11.8,3.2 14.5,3.9Q15.1,4 16.2,4Q19.4,4 23.3,2.3Q28.9,-0.4 36,-4.7L39,-6.4Q46.6,-11.5 50.6,-15.2Q51.1,-15.7 52.2,-16.75Q53.3,-17.8 53.7,-18.9Q53.8,-19.1 54.5,-19.95Q55.2,-20.8 55.4,-21.8Q54.1,-21.3 53,-21.3Q52.2,-21.3 51.6,-21.6Q48.4,-21.1 45.45,-19.9Q42.5,-18.7 37.7,-16.3Q35,-14.9 31.3,-13.3L27.4,-11.8Q21.4,-9.4 17.5,-8.9L15.8,-8.9Q14.2,-8.9 13.4,-9.3Q13.3,-9.8 13.3,-10.45Q13.3,-11.1 13.3,-11.4Q13.6,-12.6 14.2,-13.9Q14.8,-15.2 15,-15.7Q16.1,-17.6 17.6,-19.5Q18,-20 18.85,-20.85Q19.7,-21.7 20,-22.5Q21.2,-23.9 23.8,-26.5Q26,-28.5 27.4,-28.5Q28.1,-28.5 28.8,-28.1L32.3,-24.4Q32.6,-24.3 33.2,-24Q33.8,-23.7 34.2,-23.7Q34.6,-23.7 34.9,-24.1Q35.9,-26.9 36.6,-30.15Q37.3,-33.4 37.4,-34.1Q37.5,-34.9 37.3,-35.85Q37.1,-36.8 37.1,-37.5Q37.1,-38.2 37.3,-38.6L37.4,-39.9Q37.4,-40.7 36.9,-41.2L36.4,-41.3Q36,-41.3 35,-40.9Q34.3,-40.1 33.7,-38.95Q33.1,-37.8 33,-37.5Q32.1,-39 30.6,-40.6Q29,-42.1 27.4,-42.6Q23.7,-42.6 21.9,-42.1Q21.8,-42 21.5,-41.6Q21.2,-41.2 21.25,-40.95Q21.3,-40.7 21.7,-40.7L21.7,-40.9ZM20.8,-40.9Q20.6,-40.8 20.75,-40.65Q20.9,-40.5 21,-40.7L20.8,-40.9Z"></path><path transform="translate(510 200)" d="M10.8,-31.6Q6.7,-30.1 4.5,-27.6Q3.8,-25.7 3.8,-24.9Q3.8,-23.8 4.8,-23.5L5.7,-21.1Q6.7,-20.4 7.9,-20.4Q9.1,-20.4 11.3,-21.2Q11.6,-21.4 13.6,-22.6Q17.1,-24.9 19.3,-25.6L20.6,-25.7Q21.7,-25.7 21.9,-24.9Q21.9,-23.1 21.5,-21.05Q21.1,-19 21,-18.5Q20.2,-15.1 20.1,-13.2L20.1,-10.4Q20.2,-4.7 21,-1.4Q21.8,1.9 25,3.6Q26.2,3.9 27.3,3.9Q28.4,3.9 28.9,3.7Q30.5,2.9 33.5,0.7Q34,0.1 35.2,-0.9Q36.4,-1.9 37.15,-2.85Q37.9,-3.8 38.2,-4.9Q39.4,-7.1 41.45,-9.3Q43.5,-11.5 44.1,-12.1L43.1,-12.3Q42.3,-12.2 41.5,-11.45Q40.7,-10.7 40.3,-10.4Q37.5,-9.3 33.1,-8.2L29.5,-7.1Q29.3,-7.1 28.8,-6.9Q28.3,-6.7 28.1,-7.2Q28.1,-10.4 28.6,-14.2L29,-16.4Q29.2,-17.2 29.95,-20.8Q30.7,-24.4 31.9,-27.5Q32.7,-29.3 33.45,-30.45Q34.2,-31.6 35.5,-32.1Q37.4,-33 39.8,-33.85Q42.2,-34.7 43.1,-35Q44.2,-35.4 45.1,-35.7Q46,-36 46.8,-36.3L48.9,-37.2Q50.7,-37.8 51.65,-38.5Q52.6,-39.2 52.6,-40.5Q52.9,-43.1 51.2,-45.3Q49.5,-47.5 46.9,-47.8Q45.4,-47.7 42.3,-47.7Q39.8,-47.7 38.6,-47.9Q38.7,-50.6 39.4,-53.9Q39.6,-55.2 39.6,-57.9Q39.3,-58.7 38.75,-60.2Q38.2,-61.7 37.5,-62.6Q34.6,-63 33,-60.8Q31.4,-58.6 30.2,-54.8Q29.8,-53.7 29.35,-52Q28.9,-50.3 28.7,-49.4Q27.3,-43.8 25.8,-40.3Q24.3,-36.8 21.3,-34.3L17.3,-32Q12.2,-29.1 10.2,-28.2Q10.3,-28.9 10.7,-30.8L10.8,-31.6Z"></path><path transform="translate(567 200)" d=""></path><path transform="translate(597 200)" d="M5.6,-54.7Q4.9,-54.6 4.1,-53.8L4,-53.3Q4,-52.2 5.4,-50.8Q6.8,-49.9 8.8,-49.4Q10.8,-48.9 11.6,-48.7Q12.6,-48.3 13,-47.9L11.2,-40.9Q9.4,-33.3 8.4,-22.8Q8.2,-18.3 8.6,-13.65Q9,-9 9.8,-2.9Q10.1,-1.5 11.1,1.1Q11.3,1.4 11.95,2.4Q12.6,3.4 13.3,4.05Q14,4.7 14.9,4.8Q15.5,4.6 15.75,3.95Q16,3.3 16.1,3.1L16.2,-5.4Q16.4,-7 16.4,-10.5Q16.5,-14.6 16.7,-16.7Q16.9,-18.8 17.8,-20.2Q18.8,-19.5 20.2,-19.5Q20.9,-19.5 21.2,-19.6Q22.7,-20.1 25.5,-21.3Q29.3,-22.5 36.9,-24.5Q40.5,-25.7 45.9,-28Q46.6,-28.4 47.6,-28.85Q48.6,-29.3 49.2,-29.5Q53.5,-31 55,-32.7L53,-33Q52.4,-32.9 50.8,-32.7Q49.2,-32.5 47.9,-32.5Q41.3,-33.3 38,-33.3Q35.6,-33.3 33.4,-33Q31.8,-32.7 29.85,-32.1Q27.9,-31.5 27.1,-31.3L25,-30.7Q20.8,-29.1 18.6,-28.9L21,-39.8Q21.6,-41.3 22.05,-43.2Q22.5,-45.1 22.7,-45.8Q22.8,-46.3 23,-47.5Q23.2,-48.7 23.6,-49.65Q24,-50.6 24.7,-51.2Q27.4,-51.8 33,-52.2Q36.7,-52.5 39.2,-52.9Q41.7,-53.3 44.2,-54.2L46.1,-55Q48.3,-55.7 49.9,-56.6Q50.4,-56.9 50.6,-57.45Q50.8,-58 50.85,-58.5Q50.9,-59 50.9,-59.2L50.8,-60L50.8,-61.1Q50.8,-61.9 50.5,-62.3Q49.7,-63.1 49,-64.05Q48.3,-65 48.1,-66L46.7,-66.1Q44.1,-66.7 42.7,-66.8Q41.2,-66.7 39.35,-65.95Q37.5,-65.2 36.7,-64.9L32.7,-63Q27.4,-60.5 23.8,-59.1Q20.2,-57.7 16.3,-57.3Q15.4,-57 13,-55.7Q10,-53.9 8.1,-53.7Q7.5,-53.9 6.3,-54.5L5.6,-54.7Z"></path><path transform="translate(656 200)" d="M0.5,-29.5Q1.4,-29.7 3.5,-30.5Q4,-30.7 4.65,-30.95Q5.3,-31.2 6.2,-31.4Q7.3,-31.6 8.9,-31.75Q10.5,-31.9 11.4,-32Q12.7,-31.8 13.45,-31.5Q14.2,-31.2 14.3,-30.3Q14,-28.4 13.2,-26Q12.4,-23.6 12.2,-22.3Q11.5,-16.8 11.4,-12.4Q11.5,-11.6 11.7,-7.5Q11.9,-3.4 13.35,-0.5Q14.8,2.4 17.4,3.6Q18.5,3.9 19.6,3.9Q22.3,3.9 24.8,2.5Q27.6,0.8 34.4,-4.3L37.5,-6.6Q41.7,-10.4 44.25,-13.4Q46.8,-16.4 47.8,-20.1Q48.1,-21.8 48.1,-23.3Q48.1,-28.2 45.3,-32.65Q42.5,-37.1 37.9,-39.7Q32.5,-42.3 26.7,-42.3Q20.8,-42.3 16,-39.7Q12.4,-37.7 5.4,-33.1L3.5,-31.8Q3.1,-31.5 2.15,-31.15Q1.2,-30.8 0.65,-30.5Q0.1,-30.2 0,-29.5L0.5,-29.5ZM23.4,-32.8L27.9,-32.8Q31.1,-32.8 33.6,-32.4Q36.6,-31.8 38.8,-29.9Q41,-28 41,-25.5Q41,-24.6 40.5,-23.4Q37.6,-17.7 32.95,-13.15Q28.3,-8.6 22.5,-5.8Q21.6,-5.5 20.7,-5.5Q19.5,-5.5 18.65,-6.15Q17.8,-6.8 17.6,-8L17.5,-15.6Q17.5,-20.6 18.25,-24.4Q19,-28.2 21.3,-31.3L23.4,-32.8Z"></path><path transform="translate(708 200)" d="M19.1,-31.3Q16.5,-35.4 13.55,-38Q10.6,-40.6 7,-40.6Q6.2,-40.6 5.7,-40.5Q4.5,-40.3 4.5,-39.5Q4.5,-39.1 4.9,-38.8Q3.9,-38 4.1,-37.3Q4.4,-36.8 5.1,-35.55Q5.8,-34.3 6.6,-33.5Q7.2,-33.1 8.6,-32.1Q10,-31.1 10.7,-30Q11.6,-28.2 11.6,-26.3Q11.6,-24.6 11.15,-22.95Q10.7,-21.3 10.2,-19.9Q9.7,-18.5 9.6,-18.1Q7.4,-13.4 6.45,-10.85Q5.5,-8.3 5.4,-5.3Q6.2,-4.7 6,-3.4Q6.2,-1 7.6,1.1Q9,3.2 11.2,4.1Q11.5,4.1 12.15,4.25Q12.8,4.4 13.3,4.3Q18.6,-1.7 19.3,-8.3Q19.5,-10.5 19.5,-11.5Q20.1,-18.5 20.9,-22.1Q21.7,-24.1 22.95,-26.35Q24.2,-28.6 24.6,-29.4Q28.7,-35.3 33.7,-39.4Q35.4,-41.1 36,-42.5Q35.1,-42.4 33.7,-41.8Q30.2,-40.2 25.1,-35.8Q20.7,-32.4 19.5,-31.6L19.1,-31.3Z"></path><path transform="translate(744 200)" d=""></path><path transform="translate(774 200)" d="M39.6,-39.5Q39.6,-45.2 40,-48Q40.7,-50.3 40.7,-51.9Q40.7,-52.4 40.5,-53.4Q40.2,-54.4 39.5,-54.9Q38.8,-55.4 37.9,-55.4Q36.6,-55.4 35.3,-54.55Q34,-53.7 33.3,-52.4L30.9,-47.5Q27.8,-41.3 25.8,-36.8Q23.8,-32.3 22.3,-27.7Q21.8,-25.9 20.4,-20.4Q20.3,-20 20.2,-19.35Q20.1,-18.7 20.1,-18.3Q20.1,-16.9 19.8,-16Q19.5,-15.1 18.6,-14.9L17.3,-16.3Q16.3,-19.7 15.8,-23.2Q15.3,-26.7 14.8,-31.9Q14.2,-38.7 13.6,-42.2Q13.5,-42.6 13.2,-43.75Q12.9,-44.9 12.45,-45.75Q12,-46.6 11.3,-47.2Q10.8,-47.1 10.1,-47.2Q9.4,-47.3 8.9,-47.3Q7.6,-47.3 6.9,-46.7Q6.4,-46.1 5.65,-45.35Q4.9,-44.6 4.55,-43.9Q4.2,-43.2 4.4,-42.4Q4.3,-42.1 4.2,-41.75Q4.1,-41.4 4.1,-40.9Q4.1,-40.5 4.4,-40Q4.6,-40 5.5,-39.8Q6.4,-39.6 7,-39L7,-35.8Q7.2,-34.1 7.25,-32.85Q7.3,-31.6 7.3,-30.8Q7.5,-26.3 8,-22.8Q9.5,-15.3 11.1,-10.45Q12.7,-5.6 16,-1.7Q18.4,0.7 19.4,1.4Q19.7,1.6 20.75,2.3Q21.8,3 22.9,3Q24.3,2.4 25.5,1.1Q26.7,-0.2 27.1,-0.6Q28.6,-3.4 29.6,-9.1Q30.1,-12 30.6,-13.7Q30.8,-14.2 31,-14.8Q31.2,-15.4 31.45,-15.8Q31.7,-16.2 32.2,-16.3Q32.6,-12.4 33.3,-9.8Q34.1,-7.7 36.1,-3.7Q38.4,-1.4 38.9,-1Q41.4,0.5 43.4,0.7L45.2,0.8Q45.8,0.8 46.1,0.7Q46.7,0.2 47.2,-0.85Q47.7,-1.9 48,-2.4Q49.5,-6.1 51.9,-13.7L53.2,-17.8Q54,-19.6 55.4,-23.2Q57.4,-28.6 59.4,-32.8Q59.9,-34.2 61.6,-39.2Q64.2,-46.8 66,-51.2Q67.8,-55.6 70.7,-59.6Q70.8,-60.8 70.25,-61.75Q69.7,-62.7 68.7,-62.2Q67.9,-61.6 67.1,-60.4Q66.3,-59.2 65.8,-58.5Q63.8,-56 59.3,-51.5L54.7,-46.7Q52.4,-43.8 50.45,-40.6Q48.5,-37.4 45.8,-32.5Q44.1,-29.6 42.6,-27.6Q42.3,-27.3 41.85,-26.7Q41.4,-26.1 40.8,-26L40.1,-27.5Q39.6,-28.7 39.5,-30.3Q39.4,-31.9 39.3,-32.5Q39.3,-34.3 39.4,-35.6Q39.5,-36.9 39.6,-37.8L39.6,-39.5ZM6.6,-46Q6.8,-45.8 6.65,-45.65Q6.5,-45.5 6.4,-45.8L6.6,-46Z"></path><path transform="translate(849 200)" d="M11.7,-37.1L8.9,-34.5Q8.2,-33.6 6.1,-29.8Q5.4,-28 5.05,-26Q4.7,-24 4.5,-22.25Q4.3,-20.5 4.2,-20Q4,-17.2 4,-15.6Q4,-1.7 11.6,3.5Q13.8,4.4 15.6,4.85Q17.4,5.3 19.2,5.1Q28.6,3 38.1,-0.45Q47.6,-3.9 58.8,-8.9Q56.6,-8.8 53.3,-7.5Q51.5,-6.7 49.7,-6.3Q46.5,-5.7 39.8,-3.7L36.6,-2.7Q30.8,-0.9 27.9,-0.1Q27.2,-0 26.15,0.1Q25.1,0.2 23.7,0.2Q22.8,0.2 21.2,-0Q19.7,-0.4 18.6,-0.5Q15.7,-1 13.9,-1.7Q12.1,-2.4 11,-4.1Q10.8,-4.4 10.3,-5.5Q9.8,-6.6 9.5,-7.6Q9.2,-8.6 9.2,-9.5Q9.3,-10.3 9.5,-10.75Q9.7,-11.2 10.2,-11.1Q11.1,-10.7 12,-9.9Q12.9,-9.1 13.1,-8.9Q14.1,-8.3 15.5,-8.25Q16.9,-8.2 17.4,-8.2Q31.8,-9.7 42.6,-16.2Q45.6,-18.7 46.6,-22.2Q47,-24.4 47,-25.5Q47,-27.5 46.3,-30.3Q44.7,-34.6 40.95,-37.55Q37.2,-40.5 32.5,-41.7Q30.1,-42.1 28.8,-42.1Q23,-42.1 14.9,-38.4L14.5,-38.4Q14,-38.4 13.35,-38.05Q12.7,-37.7 12.4,-37.6L11.7,-37.1ZM14.1,-27.3Q16.3,-29.7 19.15,-31.15Q22,-32.6 25.2,-32.8Q26.2,-32.8 30.15,-32.8Q34.1,-32.8 36.75,-31.55Q39.4,-30.3 39.9,-27.6Q39.5,-26.6 38.1,-25Q37.4,-24.7 36.55,-24.1Q35.7,-23.5 35.3,-23.2Q26.9,-18.8 17.4,-19.1Q16.9,-19.2 15.9,-19.3Q14.9,-19.4 14.2,-19.7Q14,-19.8 13.55,-20.15Q13.1,-20.5 12.65,-20.65Q12.2,-20.8 11.8,-20.6Q11.4,-21.3 11.4,-22.1Q11.4,-23.8 13.3,-26.3L14.1,-27.3Z"></path><path transform="translate(912 200)" d="M5.3,-53.6L6.1,-54Q7.2,-54.9 7.85,-55.3Q8.5,-55.7 9.4,-55.6Q9.9,-55.2 10.05,-54.6Q10.2,-54 10.15,-53.2Q10.1,-52.4 10.1,-51.9Q9.9,-49 9.3,-42.2Q9,-39.7 8.6,-34.5Q7.5,-31.1 6.8,-25.5Q5.8,-19.5 4.9,-16.4Q4.3,-13.7 4,-10.9Q4,-7.5 4.4,-4.7Q5.5,-4.5 5.9,-3.7Q6.3,-2.9 6.5,-1.55Q6.7,-0.2 6.9,0.4Q7.3,0.5 9,1.5Q10.8,2.7 11.7,2.7Q12.2,2.7 12.9,2.2Q13,2 13.25,1.2Q13.5,0.4 14.1,0.2Q14.8,0.4 15.7,1.15Q16.6,1.9 17.1,2.3Q20.5,4 21.9,4.5Q23.7,4.8 25.6,4.8Q27.3,4.8 28.5,4.4Q29.4,3.2 30.7,2.1Q32,1 32.2,0.8Q33.9,-1 34.85,-3.3Q35.8,-5.6 36.5,-8.9Q37,-11.7 37,-15.6Q37,-21.3 35.7,-27.8Q34.2,-33.5 32,-37.2Q29.8,-40.9 25.6,-41.6Q20.9,-41.4 19,-39.1Q17.7,-37.6 16.4,-34.4L15.4,-32.1Q15.5,-33.3 15.9,-36.2Q16.5,-40.8 16.5,-43Q16.5,-45.2 16.1,-46.9L15.9,-50.1Q15.8,-54.2 15.3,-56.75Q14.8,-59.3 13,-61.4L11,-61.8Q9.3,-60.8 8.1,-59.7Q6.1,-57.3 5.3,-56Q5.2,-55.8 4.9,-55Q4.6,-54.2 5,-53.6L5.3,-53.6ZM26.7,-31.9Q28.3,-31.8 29.5,-30.1Q30.1,-27.5 30.3,-26.2Q30.5,-24.3 30.55,-22.85Q30.6,-21.4 30.6,-20.5Q30.5,-16.4 29.6,-10.8Q28.8,-8.3 27.7,-6.2Q26.9,-5.4 25.95,-5.1Q25,-4.8 23.8,-4.65Q22.6,-4.5 21.9,-4.4Q19.4,-4.5 17.5,-6.5Q15.6,-8.5 15.6,-11.1Q15.6,-11.7 15.7,-12Q18.5,-23.5 25.1,-30.9L26.7,-31.9Z"></path></svg>